<svg width="32" height="47" viewBox="0 0 32 47" fill="none" xmlns="http://www.w3.org/2000/svg">
<path d="M23.3887 18.0564H14.5894V0.831787H23.3887C28.1374 0.831787 32 4.69442 32 9.44311C32 14.1918 28.1374 18.0564 23.3887 18.0564ZM17.4106 15.2351H23.3887C26.582 15.2351 29.1788 12.6364 29.1788 9.44503C29.1788 6.25366 26.58 3.65492 23.3887 3.65492H17.4106V15.2351ZM17.4106 18.0564H8.61325C3.86455 18.0564 0.00191775 14.1937 0.00191775 9.44503C0.00191775 4.69634 3.86455 0.831787 8.61325 0.831787H17.4125V18.0564H17.4106ZM8.61325 3.653C5.41996 3.653 2.82313 6.25174 2.82313 9.44311C2.82313 12.6345 5.41996 15.2351 8.61325 15.2351H14.5913V3.653H8.61325ZM17.4106 32.4578H8.61325C3.86455 32.4578 0.00191775 28.5952 0.00191775 23.8465C0.00191775 19.0978 3.86455 15.2351 8.61325 15.2351H17.4125V32.4578H17.4106ZM8.61325 18.0564C5.41996 18.0564 2.82313 20.6551 2.82313 23.8465C2.82313 27.0378 5.42188 29.6366 8.61325 29.6366H14.5913V18.0564H8.61325ZM8.65928 46.8612C3.88565 46.8612 0 42.9985 0 38.2498C0 33.5011 3.86263 29.6385 8.61133 29.6385H17.4106V38.1559C17.4106 42.9563 13.4847 46.8612 8.65928 46.8612ZM8.61325 32.4578C7.07824 32.4598 5.60668 33.0705 4.52126 34.1559C3.43584 35.2413 2.82516 36.7129 2.82313 38.2479C2.82313 41.4412 5.44106 44.038 8.66119 44.038C11.9312 44.038 14.5932 41.399 14.5932 38.1539V32.4578H8.61325ZM23.3887 32.4578H23.2007C18.452 32.4578 14.5894 28.5952 14.5894 23.8465C14.5894 19.0978 18.452 15.2351 23.2007 15.2351H23.3887C28.1374 15.2351 32 19.0978 32 23.8465C32 28.5952 28.1374 32.4578 23.3887 32.4578ZM23.2026 18.0564C20.0093 18.0564 17.4125 20.6551 17.4125 23.8465C17.4125 27.0378 20.0113 29.6366 23.2026 29.6366H23.3906C26.5839 29.6366 29.1807 27.0378 29.1807 23.8465C29.1807 20.6551 26.582 18.0564 23.3906 18.0564H23.2026Z" fill="#F24E1E"/>
</svg>
