<svg width="48" height="49" viewBox="0 0 48 49" fill="none" xmlns="http://www.w3.org/2000/svg">
<path d="M47.0925 22.6927L26.1343 1.73648C24.9263 0.530467 22.9702 0.530467 21.7582 1.73648L17.4162 6.08652L22.9362 11.6066C24.2263 11.1766 25.6943 11.4666 26.7143 12.4886C27.7463 13.5186 28.0303 15.0046 27.5903 16.2886L32.9063 21.6087C34.1964 21.1627 35.6804 21.4527 36.7064 22.4787C38.1484 23.9187 38.1484 26.2467 36.7064 27.6867C35.2684 29.1248 32.9443 29.1248 31.5063 27.6867C30.4283 26.6047 30.1583 25.0127 30.6983 23.6947L25.7203 18.7427V31.7928C26.0723 31.9648 26.4043 32.1988 26.6963 32.4888C28.1223 33.9308 28.1223 36.2548 26.6963 37.6889C25.2583 39.1309 22.9182 39.1309 21.4782 37.6889C20.0402 36.2508 20.0402 33.9308 21.4782 32.4928C21.8422 32.1328 22.2522 31.8608 22.6882 31.6808V18.5027C22.2542 18.3207 21.8402 18.0586 21.4882 17.7006C20.3982 16.6106 20.1362 15.0166 20.6962 13.6826L15.2722 8.23255L0.900009 22.5947C-0.300003 23.8047 -0.300003 25.7627 0.900009 26.9727L21.8602 47.927C23.0682 49.135 25.0243 49.135 26.2323 47.927L47.0925 27.0667C48.3025 25.8607 48.3025 23.9027 47.0925 22.6927Z" fill="#F05032"/>
</svg>
