<svg width="49" height="49" viewBox="0 0 49 49" fill="none" xmlns="http://www.w3.org/2000/svg">
<path d="M0.5 0.832275H48.5V48.8323H0.5V0.832275ZM44.568 37.3843C44.218 35.1943 42.792 33.3543 38.562 31.6383C37.09 30.9483 35.454 30.4683 34.968 29.3583C34.786 28.6983 34.758 28.3383 34.876 27.9483C35.176 26.6563 36.706 26.2683 37.906 26.6283C38.686 26.8683 39.406 27.4683 39.858 28.4283C41.926 27.0763 41.926 27.0763 43.368 26.1783C42.828 25.3383 42.56 24.9763 42.196 24.6183C40.936 23.2083 39.258 22.4883 36.528 22.5503L35.118 22.7283C33.766 23.0583 32.478 23.7783 31.698 24.7383C29.418 27.3203 30.076 31.8203 32.836 33.6803C35.566 35.7203 39.558 36.1683 40.068 38.0903C40.548 40.4303 38.328 41.1803 36.136 40.9103C34.514 40.5503 33.616 39.7383 32.626 38.2383L28.966 40.3403C29.386 41.3003 29.866 41.7183 30.586 42.5583C34.066 46.0703 42.766 45.8903 44.328 40.5503C44.386 40.3703 44.808 39.1403 44.476 37.2503L44.568 37.3843ZM26.602 22.8943H22.106C22.106 26.7703 22.088 30.6223 22.088 34.5043C22.088 36.9683 22.214 39.2303 21.812 39.9263C21.152 41.3043 19.452 41.1283 18.68 40.8863C17.888 40.4943 17.486 39.9543 17.02 39.1763C16.894 38.9663 16.8 38.7843 16.766 38.7843L13.116 41.0343C13.726 42.2943 14.616 43.3783 15.764 44.0683C17.474 45.0883 19.772 45.4183 22.178 44.8783C23.744 44.4263 25.094 43.4963 25.8 42.0563C26.82 40.1963 26.604 37.9163 26.594 35.3643C26.618 31.2563 26.594 27.1463 26.594 23.0063L26.602 22.8943Z" fill="#F7DF1E"/>
</svg>
