<svg width="48" height="49" viewBox="0 0 48 49" fill="none" xmlns="http://www.w3.org/2000/svg">
<path d="M23.1448 0.832092C22.7922 0.832092 22.5252 0.834692 22.428 0.845492C22.3248 0.856092 21.9962 0.887493 21.7008 0.911093C14.8831 1.5257 8.49727 5.20373 4.45264 10.8568C2.20042 14.0002 0.760006 17.5654 0.216002 21.3423C0.0236002 22.6603 0 23.0497 0 24.8371C0 26.6245 0.0240002 27.0139 0.216002 28.3323C1.52001 37.3444 7.93427 44.9163 16.6335 47.7215C18.1914 48.2237 19.8336 48.5661 21.701 48.7725C22.4282 48.8525 25.5718 48.8525 26.299 48.7725C29.5224 48.4159 32.2535 47.6185 34.9465 46.2439C35.3595 46.0327 35.4393 45.9765 35.3831 45.9293C35.3455 45.9015 33.5857 43.5417 31.4745 40.6892L27.6364 35.5052L22.827 28.3885C20.1808 24.4757 18.0035 21.2765 17.9848 21.2765C17.966 21.2713 17.9473 24.4339 17.9377 28.2945C17.9243 35.055 17.9191 35.327 17.8345 35.4866C17.7125 35.7166 17.6185 35.8102 17.4217 35.9134C17.2717 35.9882 17.1401 36.0024 16.4317 36.0024H15.6197L15.4041 35.8664C15.2704 35.7826 15.1618 35.6643 15.0897 35.524L14.9911 35.3128L15.0017 25.9067L15.0151 16.4958L15.1603 16.3128C15.2355 16.2142 15.3951 16.0878 15.5075 16.0268C15.6999 15.9328 15.7751 15.9234 16.5867 15.9234C17.5441 15.9234 17.7035 15.9608 17.9522 16.2328C18.0228 16.3082 20.6268 20.2303 23.7422 24.9545C26.8966 29.7362 30.0529 34.5166 33.2111 39.2958L37.0115 45.0523L37.2035 44.9257C38.9071 43.8185 40.7085 42.242 42.1349 40.6002C45.1708 37.1144 47.1276 32.8642 47.7844 28.3321C47.9766 27.0139 48 26.6241 48 24.8371C48 23.0497 47.976 22.6603 47.7844 21.3419C46.48 12.3298 40.0659 4.75793 31.3669 1.9527C29.8324 1.4553 28.1996 1.11269 26.3698 0.906293C26.0318 0.871093 24.2028 0.833092 23.1452 0.832292L23.1448 0.832092ZM31.2819 15.2662C31.9765 15.2662 32.0983 15.2768 32.2533 15.3602C32.4787 15.4726 32.6613 15.6886 32.7273 15.9136C32.7645 16.0356 32.7741 18.6442 32.7645 24.5225L32.7511 32.9576L31.2639 30.6775L29.7716 28.3975V22.2655C29.7716 18.3014 29.7902 16.0728 29.8184 15.965C29.8934 15.7024 30.0576 15.4958 30.2831 15.374C30.4753 15.2752 30.5457 15.266 31.2825 15.266L31.2819 15.2662Z" fill="black"/>
</svg>
