<svg width="48" height="44" viewBox="0 0 48 44" fill="none" xmlns="http://www.w3.org/2000/svg">
<path d="M28.46 21.8373C28.46 23.023 27.9891 24.1601 27.1509 24.9988C26.3127 25.8374 25.1757 26.3087 23.99 26.3093C22.804 26.3093 21.6665 25.8381 20.8278 24.9995C19.9892 24.1608 19.518 23.0233 19.518 21.8373C19.518 20.6516 19.9889 19.5144 20.8271 18.6758C21.6653 17.8372 22.8023 17.3658 23.988 17.3653C25.174 17.3653 26.3115 17.8364 27.1502 18.6751C27.9888 19.5138 28.46 20.6512 28.46 21.8373ZM33.756 0.457275C31.064 0.457275 27.542 2.37728 23.98 5.70128C20.42 2.39528 16.896 0.497275 14.206 0.497275C13.386 0.497275 12.64 0.683275 11.994 1.05328C9.244 2.63928 8.628 7.58128 10.048 13.7833C3.96 15.6633 0 18.6693 0 21.8373C0 25.0173 3.98 28.0313 10.086 29.8973C8.678 36.1233 9.306 41.0733 12.062 42.6573C12.702 43.0313 13.442 43.2073 14.266 43.2073C16.956 43.2073 20.48 41.2873 24.042 37.9593C27.602 41.2673 31.126 43.1653 33.816 43.1653C34.636 43.1653 35.382 42.9853 36.028 42.6153C38.776 41.0313 39.394 36.0893 37.974 29.8853C44.04 28.0213 48 25.0093 48 21.8373C48 18.6573 44.02 15.6433 37.914 13.7733C39.322 7.55328 38.694 2.59928 35.938 1.01328C35.302 0.645275 34.562 0.459275 33.754 0.457275H33.756ZM33.746 2.63728V2.64928C34.196 2.64928 34.558 2.73728 34.862 2.90328C36.194 3.66728 36.772 6.57328 36.322 10.3113C36.214 11.2313 36.038 12.2013 35.822 13.1913C33.902 12.7193 31.81 12.3573 29.608 12.1233C28.288 10.3133 26.918 8.66928 25.538 7.22928C28.722 4.26928 31.712 2.64528 33.748 2.63928L33.746 2.63728ZM14.206 2.67728C16.23 2.67728 19.234 4.29328 22.426 7.23728C21.054 8.67728 19.686 10.3113 18.386 12.1213C16.172 12.3553 14.078 12.7173 12.16 13.1973C11.936 12.2173 11.77 11.2693 11.652 10.3573C11.192 6.62128 11.76 3.71728 13.08 2.94328C13.46 2.76328 13.88 2.68928 14.206 2.67928V2.67728ZM23.97 8.77728C24.88 9.71328 25.79 10.7613 26.69 11.9053C25.81 11.8653 24.91 11.8373 24 11.8373C23.08 11.8373 22.17 11.8573 21.28 11.9053C22.16 10.7613 23.07 9.71328 23.97 8.77528V8.77728ZM24 14.0293C25.48 14.0293 26.954 14.0973 28.404 14.2153C29.216 15.3793 30.008 16.6213 30.77 17.9353C31.514 19.2153 32.19 20.5153 32.806 21.8273C32.19 23.1373 31.514 24.4473 30.78 25.7273C30.02 27.0473 29.234 28.3033 28.42 29.4673C26.964 29.5933 25.488 29.6633 24 29.6633C22.52 29.6633 21.046 29.5933 19.596 29.4773C18.784 28.3133 17.992 27.0693 17.23 25.7573C16.486 24.4773 15.81 23.1773 15.194 21.8653C15.8 20.5513 16.486 19.2393 17.22 17.9573C17.98 16.6373 18.766 15.3853 19.58 14.2213C21.036 14.0933 22.512 14.0253 24 14.0253V14.0293ZM16.73 14.5373C16.25 15.2913 15.77 16.0633 15.322 16.8573C14.872 17.6373 14.452 18.4213 14.052 19.2053C13.522 17.8933 13.072 16.5853 12.7 15.3113C13.98 15.0113 15.33 14.7453 16.73 14.5393V14.5373ZM31.25 14.5373C32.64 14.7433 33.98 14.9973 35.262 15.3113C34.902 16.5753 34.452 17.8753 33.942 19.1773C33.542 18.3973 33.122 17.6113 32.662 16.8293C32.212 16.0453 31.732 15.2813 31.252 14.5373H31.25ZM37.376 15.8873C38.344 16.1873 39.264 16.5213 40.126 16.8833C43.59 18.3633 45.83 20.2993 45.83 21.8353C45.82 23.3713 43.58 25.3153 40.116 26.7853C39.276 27.1453 38.356 27.4693 37.406 27.7713C36.846 25.8553 36.114 23.8593 35.206 21.8113C36.106 19.7773 36.826 17.7913 37.376 15.8833V15.8873ZM10.586 15.8953C11.142 17.8153 11.876 19.8093 12.786 21.8553C11.886 23.8893 11.162 25.8753 10.614 27.7833C9.646 27.4833 8.726 27.1473 7.874 26.7833C4.41 25.3093 2.17 23.3713 2.17 21.8353C2.17 20.2993 4.41 18.3513 7.874 16.8833C8.714 16.5233 9.634 16.1993 10.586 15.8953ZM33.942 24.4553C34.472 25.7693 34.922 27.0793 35.294 28.3513C34.014 28.6653 32.662 28.9313 31.262 29.1313C31.742 28.3813 32.222 27.6073 32.672 26.8153C33.122 26.0353 33.542 25.2393 33.944 24.4553H33.942ZM14.052 24.4953C14.452 25.2793 14.872 26.0613 15.332 26.8453C15.792 27.6253 16.262 28.3893 16.742 29.1313C15.352 28.9273 14.012 28.6713 12.73 28.3593C13.09 27.0993 13.542 25.7953 14.05 24.4933L14.052 24.4953ZM35.84 30.4693C36.064 31.4553 36.24 32.4053 36.348 33.3153C36.808 37.0513 36.24 39.9553 34.92 40.7313C34.626 40.9113 34.244 40.9873 33.794 40.9873C31.77 40.9873 28.766 39.3733 25.574 36.4273C26.946 34.9873 28.314 33.3553 29.614 31.5473C31.828 31.3113 33.922 30.9473 35.84 30.4673V30.4693ZM12.18 30.4893C14.1 30.9573 16.192 31.3193 18.394 31.5533C19.714 33.3633 21.084 35.0073 22.464 36.4453C19.274 39.4113 16.28 41.0353 14.244 41.0353C13.804 41.0253 13.432 40.9353 13.138 40.7713C11.806 40.0113 11.228 37.1033 11.678 33.3653C11.786 32.4453 11.962 31.4773 12.178 30.4893H12.18ZM21.3 31.7693C22.18 31.8093 23.08 31.8373 23.99 31.8373C24.91 31.8373 25.82 31.8173 26.71 31.7693C25.83 32.9133 24.92 33.9593 24.02 34.8993C23.11 33.9593 22.2 32.9133 21.3 31.7693Z" fill="#61DAFB"/>
</svg>
