<svg width="32" height="33" viewBox="0 0 32 33" fill="none" xmlns="http://www.w3.org/2000/svg">
<path d="M16 0.846466C24.836 0.846466 32 8.01047 32 16.8465C32 25.6825 24.836 32.8465 16 32.8465C7.164 32.8465 0 25.6825 0 16.8465C0 8.01047 7.164 0.846466 16 0.846466ZM12.82 22.1771C13.0533 23.0371 13.028 23.8411 12.788 24.5665L12.7013 24.8065C12.6693 24.8878 12.632 24.9665 12.5973 25.0411C12.4107 25.4278 12.1627 25.7878 11.8573 26.1211C10.9267 27.1331 9.628 27.5171 9.07067 27.1945C8.47067 26.8451 8.76933 25.4145 9.84933 24.2745C11.0107 23.0505 12.676 22.2625 12.676 22.2625V22.2585L12.82 22.1771ZM26.0347 7.6958C25.312 4.8518 20.5987 3.91713 16.1387 5.50247C13.4867 6.44513 10.6133 7.92647 8.548 9.85847C6.09067 12.1531 5.7 14.1531 5.86133 14.9891C6.43067 17.9371 10.4707 19.8651 12.132 21.2958V21.3038C11.6427 21.5438 8.05733 23.3425 7.21733 25.2038C6.31733 27.1638 7.35733 28.5651 8.03733 28.7438C10.1373 29.3251 12.2973 28.2638 13.4573 26.5451C14.5773 24.8638 14.4787 22.7038 13.996 21.6438C14.6573 21.4638 15.436 21.3838 16.436 21.5051C19.2373 21.8251 19.7973 23.5851 19.676 24.3051C19.556 25.0238 18.9787 25.4438 18.7773 25.5638C18.5773 25.6851 18.5173 25.7238 18.536 25.8051C18.556 25.9251 18.6573 25.9251 18.816 25.9051C19.036 25.8651 20.2773 25.3051 20.3373 23.9438C20.3973 22.2238 18.756 20.3051 15.8373 20.3438C14.6373 20.3651 13.876 20.4651 13.3373 20.6851C13.2973 20.6251 13.256 20.5851 13.1973 20.5451C11.3973 18.6051 8.05733 17.2451 8.19733 14.6651C8.23733 13.7251 8.57733 11.2465 14.5973 8.24647C19.5373 5.78513 23.4787 6.46647 24.1587 7.96647C25.136 10.1051 22.0573 14.0865 16.9173 14.6651C14.9573 14.8851 13.9373 14.1265 13.676 13.8451C13.3973 13.5451 13.3573 13.5251 13.2573 13.5865C13.0973 13.6665 13.1973 13.9265 13.2573 14.0865C13.4173 14.4865 14.0373 15.1865 15.1187 15.5465C16.0573 15.8465 18.3587 16.0251 21.1187 14.9465C24.2173 13.7478 26.6373 10.4065 25.9373 7.60647L26.0347 7.6958Z" fill="#CC6699"/>
</svg>
