<svg width="32" height="20" viewBox="0 0 32 20" fill="none" xmlns="http://www.w3.org/2000/svg">
<path d="M16 0.24646C11.7333 0.24646 9.06667 2.37979 8 6.64646C9.6 4.51313 11.4667 3.71313 13.6 4.24646C14.8173 4.55046 15.6867 5.43313 16.6507 6.41179C18.22 8.00379 20.0347 9.84646 24 9.84646C28.2667 9.84646 30.9333 7.71313 32 3.44646C30.4 5.57979 28.5333 6.37979 26.4 5.84646C25.1827 5.54246 24.3133 4.65979 23.3493 3.68113C21.7813 2.08913 19.9667 0.24646 16 0.24646ZM8 9.84646C3.73333 9.84646 1.06667 11.9798 0 16.2465C1.6 14.1131 3.46667 13.3131 5.6 13.8465C6.81733 14.1505 7.68667 15.0331 8.65067 16.0118C10.22 17.6038 12.0347 19.4465 16 19.4465C20.2667 19.4465 22.9333 17.3131 24 13.0465C22.4 15.1798 20.5333 15.9798 18.4 15.4465C17.1827 15.1425 16.3133 14.2598 15.3493 13.2811C13.7813 11.6891 11.9667 9.84646 8 9.84646Z" fill="#06B6D4"/>
</svg>
