<svg width="32" height="33" viewBox="0 0 32 33" fill="none" xmlns="http://www.w3.org/2000/svg">
<path d="M10.408 5.97313H13.8253V12.8078H10.408V5.97313ZM8.36667 8.17313C8.18 8.03447 8.004 7.92913 7.83733 7.85447C7.66933 7.7798 7.464 7.74247 7.22 7.74247C6.99733 7.74247 6.82267 7.7878 6.69867 7.87847C6.57333 7.9678 6.51067 8.09313 6.51067 8.2518C6.51067 8.37447 6.57067 8.4758 6.69067 8.55447C6.80933 8.63447 6.96 8.71047 7.14 8.78113C7.32 8.85313 7.516 8.9278 7.72533 9.00513C7.93467 9.08113 8.13067 9.1758 8.31067 9.2878C8.49067 9.39847 8.64133 9.5358 8.76 9.69713C8.88 9.85847 8.94 10.0625 8.94 10.3065C8.94 10.6465 8.81867 10.9345 8.57733 11.1705C8.336 11.4065 7.99733 11.5558 7.56267 11.6198V12.7905H6.92533V11.6358C6.64933 11.6091 6.376 11.5385 6.10533 11.4251C5.83467 11.3105 5.60133 11.1718 5.404 11.0065L5.81867 10.3785C6.04667 10.5318 6.27733 10.6571 6.51067 10.7518C6.74533 10.8478 7 10.8958 7.276 10.8958C7.53067 10.8958 7.72267 10.8478 7.85333 10.7518C7.98267 10.6571 8.048 10.5291 8.048 10.3705C8.048 10.2318 7.988 10.1185 7.868 10.0278C7.74933 9.93713 7.59867 9.85447 7.41867 9.77713C7.23867 9.6998 7.044 9.62247 6.83733 9.54647C6.63067 9.46913 6.43733 9.37447 6.256 9.2638C6.076 9.1518 5.92667 9.01847 5.80667 8.86113C5.68667 8.70513 5.628 8.50647 5.628 8.2678C5.628 7.9238 5.744 7.64247 5.97733 7.4238C6.212 7.20647 6.52667 7.0718 6.92533 7.01847V5.9758H7.56267V7.01047C7.844 7.04247 8.084 7.11447 8.28267 7.22513C8.48133 7.33713 8.664 7.47447 8.828 7.6398L8.36667 8.17313ZM5.48 4.91713C4.872 5.24247 4.396 5.71847 4.07067 6.32647C3.74533 6.93447 3.57333 7.53713 3.57333 9.19847V24.4945C3.57333 26.1558 3.74533 26.7585 4.07067 27.3665C4.396 27.9745 4.872 28.4505 5.48 28.7758C6.088 29.1011 6.69067 29.2731 8.352 29.2731H23.648C25.3093 29.2731 25.912 29.1011 26.52 28.7758C27.128 28.4505 27.604 27.9745 27.9293 27.3665C28.2547 26.7585 28.4267 26.1558 28.4267 24.4945V9.19847C28.4267 7.53713 28.2547 6.93447 27.9293 6.32647C27.604 5.71847 27.128 5.24247 26.52 4.91713C25.912 4.5918 25.3093 4.4198 23.648 4.4198H8.352C6.69067 4.4198 6.088 4.5918 5.48 4.91713ZM8.412 2.08913H23.588C26.0813 2.08913 26.9853 2.34913 27.896 2.8358C28.808 3.3238 29.5227 4.03847 30.0107 4.95047C30.4973 5.86113 30.7573 6.76513 30.7573 9.25847V24.4345C30.7573 26.9278 30.4973 27.8318 30.0107 28.7425C29.5227 29.6545 28.808 30.3691 27.896 30.8571C26.9853 31.3438 26.0813 31.6038 23.588 31.6038H8.412C5.91867 31.6038 5.01467 31.3438 4.104 30.8571C3.192 30.3691 2.47733 29.6545 1.98933 28.7425C1.50267 27.8318 1.24267 26.9278 1.24267 24.4345V9.25847C1.24267 6.76513 1.50267 5.86113 1.98933 4.95047C2.47733 4.03847 3.192 3.3238 4.104 2.8358C5.01467 2.34913 5.91867 2.08913 8.412 2.08913ZM3.656 1.80113C2.49067 2.4238 1.57733 3.33713 0.954667 4.50247C0.332 5.66647 0 6.82113 0 10.0065V23.6865C0 26.8718 0.332 28.0265 0.954667 29.1905C1.57733 30.3558 2.49067 31.2691 3.656 31.8918C4.82 32.5145 5.97467 32.8465 9.16 32.8465H22.84C26.0253 32.8465 27.18 32.5145 28.344 31.8918C29.5093 31.2691 30.4227 30.3558 31.0453 29.1905C31.668 28.0265 32 26.8718 32 23.6865V10.0065C32 6.82113 31.668 5.66647 31.0453 4.50247C30.4227 3.33713 29.5093 2.4238 28.344 1.80113C27.18 1.17847 26.0253 0.846466 22.84 0.846466H9.16C5.97467 0.846466 4.82 1.17847 3.656 1.80113Z" fill="black"/>
</svg>
