<svg width="32" height="33" viewBox="0 0 32 33" fill="none" xmlns="http://www.w3.org/2000/svg">
<path d="M1.5 0.846466C0.669333 0.846466 0 1.5158 0 2.34647V31.3465C0 32.1771 0.669333 32.8465 1.5 32.8465H30.5C31.3307 32.8465 32 32.1771 32 31.3465V2.34647C32 1.5158 31.3307 0.846466 30.5 0.846466H1.5ZM24.6507 13.8465C25.4667 13.8465 26.1893 13.8958 26.82 13.9945C27.4148 14.0836 27.9985 14.2356 28.5613 14.4478V17.7251C28.2912 17.5383 28.0042 17.3772 27.704 17.2438C27.3944 17.1045 27.0749 16.9886 26.748 16.8971C26.1288 16.7246 25.4894 16.6349 24.8467 16.6305C24.4467 16.6305 24.0827 16.6678 23.7547 16.7451C23.4623 16.8077 23.1819 16.9166 22.924 17.0678C22.6973 17.2065 22.524 17.3731 22.4 17.5665C22.2753 17.7613 22.2104 17.9885 22.2133 18.2198C22.2133 18.4811 22.284 18.7171 22.4213 18.9251C22.56 19.1331 22.7573 19.3305 23.012 19.5171C23.2667 19.7038 23.576 19.8851 23.94 20.0638C24.304 20.2438 24.716 20.4291 25.1747 20.6185C25.8013 20.8811 26.364 21.1611 26.8627 21.4558C27.3613 21.7518 27.7893 22.0865 28.1467 22.4598C28.504 22.8318 28.776 23.2571 28.9653 23.7358C29.1547 24.2145 29.2507 24.7705 29.2507 25.4065C29.2507 26.2825 29.084 27.0198 28.7533 27.6145C28.4303 28.201 27.9666 28.6981 27.404 29.0611C26.7976 29.4457 26.1255 29.7151 25.4213 29.8558C24.6667 30.0158 23.8707 30.0958 23.0347 30.0958C22.2119 30.0994 21.3905 30.0262 20.5813 29.8771C19.8812 29.756 19.2023 29.5347 18.5653 29.2198V25.7131C19.7704 26.7386 21.299 27.3053 22.8813 27.3131C23.3253 27.3131 23.7133 27.2731 24.044 27.1931C24.376 27.1131 24.652 27.0011 24.8747 26.8598C25.096 26.7158 25.2613 26.5478 25.372 26.3531C25.4943 26.1265 25.55 25.8698 25.5325 25.6129C25.515 25.3559 25.4252 25.1092 25.2733 24.9011C25.0752 24.639 24.8329 24.4134 24.5573 24.2345C24.2155 24.0079 23.8557 23.8099 23.4813 23.6425C23.0377 23.4398 22.59 23.246 22.1387 23.0611C20.9147 22.5505 20.0027 21.9251 19.4013 21.1878C18.8013 20.4505 18.5 19.5585 18.5 18.5145C18.5 17.6958 18.664 16.9931 18.992 16.4051C19.32 15.8171 19.7653 15.3331 20.3307 14.9531C20.9286 14.5587 21.5925 14.2746 22.2907 14.1145C23.064 13.9321 23.8562 13.8422 24.6507 13.8465ZM4.5 14.0971H17.2507V16.9851H12.6747V29.8465H9.052V16.9851H4.5V14.0971Z" fill="#3178C6"/>
</svg>
