<svg width="550" height="480" viewBox="0 0 550 480" fill="none" xmlns="http://www.w3.org/2000/svg">
<g clip-path="url(#clip0_54_2283)">
<path d="M495.901 250.166C495.973 309.444 473.06 366.442 431.98 409.177C429.503 411.77 426.96 414.301 424.35 416.769C420.373 420.552 416.262 424.188 412.018 427.678C372.315 460.388 322.75 478.769 271.32 479.856C269.606 479.895 267.886 479.914 266.16 479.914C225.143 479.914 173.553 458.006 126.736 427.678C122.862 425.169 119.023 422.602 115.219 419.976C113.44 418.761 111.671 417.528 109.91 416.277C91.8529 403.527 74.7133 389.525 58.6175 374.375C48.079 364.484 38.1966 353.917 29.0333 342.74C-6.93984 298.367 -14.8742 258.385 36.4116 250.166C42.4836 249.196 48.3767 248.159 54.0909 247.056C62.3681 245.465 70.2896 243.747 77.8553 241.902C88.0465 239.425 97.6212 236.74 106.58 233.845C109.593 232.875 112.537 231.885 115.413 230.877C157.923 215.945 186.376 196.475 205.743 175.349C209.028 171.773 212.057 168.154 214.829 164.491C219.07 158.917 222.922 153.058 226.358 146.954C231.101 138.474 235.085 129.591 238.263 120.409L238.438 119.905C253.847 75.4543 249.159 34.2239 266.16 20.4244C338.83 -38.5694 429.303 45.4433 471.768 144.516C473.909 149.509 475.922 154.531 477.808 159.583C478.655 161.84 479.472 164.101 480.259 166.367C482.328 172.271 484.206 178.19 485.891 184.124C486.538 186.387 487.154 188.648 487.741 190.907C488.368 193.345 488.969 195.776 489.525 198.208C493.657 216.01 495.901 233.567 495.901 250.166Z" fill="#F2F2F2"/>
<path d="M271.32 479.856C269.606 479.895 267.886 479.914 266.16 479.914C225.143 479.914 173.553 458.006 126.736 427.678C122.862 425.169 119.023 422.602 115.219 419.976L118.555 399.671L219.569 386.26L270.266 425.027L271.32 479.856Z" fill="#2F2E41"/>
<path d="M276.183 117.286H261.788C261.342 117.286 260.915 117.464 260.6 117.779C260.284 118.094 260.107 118.522 260.107 118.967V133.368C260.107 133.589 260.151 133.807 260.236 134.01C260.32 134.214 260.444 134.399 260.6 134.554C260.756 134.71 260.942 134.833 261.146 134.917C261.349 135.001 261.568 135.044 261.788 135.043H276.183C276.627 135.043 277.054 134.867 277.369 134.553C277.685 134.239 277.862 133.813 277.864 133.368V118.967C277.863 118.522 277.685 118.095 277.37 117.78C277.055 117.465 276.628 117.287 276.183 117.286Z" fill="white"/>
<path d="M276.183 141.826H261.788C261.342 141.827 260.915 142.004 260.6 142.319C260.284 142.634 260.107 143.062 260.107 143.508V157.909C260.107 158.129 260.151 158.347 260.236 158.551C260.32 158.754 260.444 158.939 260.6 159.095C260.756 159.25 260.942 159.373 261.146 159.457C261.349 159.541 261.568 159.584 261.788 159.583H276.183C276.627 159.584 277.054 159.407 277.369 159.093C277.685 158.78 277.862 158.353 277.864 157.909V143.508C277.863 143.062 277.685 142.635 277.37 142.32C277.055 142.005 276.628 141.828 276.183 141.826Z" fill="#E6E6E6"/>
<path d="M276.183 166.367H261.788C261.342 166.367 260.915 166.544 260.6 166.859C260.284 167.175 260.107 167.602 260.107 168.048V182.443C260.107 182.663 260.15 182.882 260.234 183.086C260.318 183.291 260.442 183.476 260.598 183.632C260.755 183.789 260.94 183.912 261.144 183.997C261.348 184.081 261.567 184.124 261.788 184.124H276.183C276.628 184.124 277.056 183.946 277.371 183.631C277.687 183.316 277.864 182.888 277.864 182.443V168.048C277.863 167.603 277.685 167.176 277.37 166.861C277.055 166.546 276.628 166.368 276.183 166.367Z" fill="#E6E6E6"/>
<path d="M277.838 192.291C277.766 191.904 277.562 191.554 277.26 191.301C276.957 191.048 276.577 190.909 276.183 190.907H261.788C261.342 190.907 260.915 191.085 260.6 191.4C260.284 191.715 260.107 192.143 260.107 192.588V206.983C260.107 207.204 260.15 207.423 260.234 207.627C260.318 207.831 260.442 208.016 260.598 208.173C260.755 208.329 260.94 208.453 261.144 208.537C261.349 208.621 261.567 208.665 261.788 208.664H276.183C276.628 208.664 277.056 208.487 277.371 208.172C277.687 207.856 277.864 207.429 277.864 206.983V192.588C277.865 192.489 277.857 192.389 277.838 192.291Z" fill="#E6E6E6"/>
<path d="M276.836 215.577C276.629 215.491 276.407 215.447 276.183 215.447H261.788C261.567 215.447 261.349 215.49 261.144 215.575C260.94 215.659 260.755 215.783 260.599 215.939C260.442 216.095 260.319 216.281 260.234 216.485C260.15 216.689 260.107 216.908 260.107 217.129V231.523C260.106 231.744 260.149 231.963 260.233 232.168C260.317 232.372 260.441 232.558 260.597 232.714C260.754 232.871 260.939 232.994 261.144 233.079C261.348 233.163 261.567 233.205 261.788 233.205H276.183C276.629 233.204 277.056 233.027 277.371 232.712C277.687 232.397 277.864 231.969 277.864 231.523V217.129C277.863 216.798 277.765 216.474 277.583 216.199C277.4 215.923 277.14 215.707 276.836 215.577Z" fill="#E6E6E6"/>
<path d="M306.42 117.286H292.026C291.58 117.286 291.152 117.464 290.837 117.779C290.522 118.094 290.345 118.522 290.344 118.967V133.368C290.345 133.589 290.388 133.807 290.473 134.01C290.558 134.214 290.682 134.399 290.838 134.554C290.994 134.71 291.179 134.833 291.383 134.917C291.587 135.001 291.805 135.044 292.026 135.043H306.42C306.865 135.043 307.292 134.867 307.607 134.553C307.922 134.239 308.1 133.813 308.101 133.368V118.967C308.1 118.522 307.923 118.095 307.608 117.78C307.293 117.465 306.866 117.287 306.42 117.286Z" fill="#E6E6E6"/>
<path d="M306.42 141.826H292.026C291.58 141.827 291.152 142.004 290.837 142.319C290.522 142.634 290.345 143.062 290.344 143.508V157.909C290.345 158.129 290.388 158.347 290.473 158.551C290.558 158.754 290.682 158.939 290.838 159.095C290.994 159.25 291.179 159.373 291.383 159.457C291.587 159.541 291.805 159.584 292.026 159.583H306.42C306.865 159.584 307.292 159.407 307.607 159.093C307.922 158.78 308.1 158.353 308.101 157.909V143.508C308.1 143.062 307.923 142.635 307.608 142.32C307.293 142.005 306.866 141.828 306.42 141.826Z" fill="#8957E5"/>
<path d="M306.42 166.367H292.026C291.58 166.367 291.152 166.544 290.837 166.859C290.522 167.175 290.345 167.602 290.344 168.048V182.443C290.344 182.663 290.387 182.882 290.472 183.086C290.556 183.291 290.68 183.476 290.836 183.632C290.992 183.789 291.178 183.912 291.382 183.997C291.586 184.081 291.805 184.124 292.026 184.124H306.42C306.866 184.124 307.293 183.946 307.609 183.631C307.924 183.316 308.101 182.888 308.101 182.443V168.048C308.1 167.603 307.923 167.176 307.608 166.861C307.293 166.546 306.866 166.368 306.42 166.367Z" fill="#8957E5"/>
<path d="M306.42 190.907H292.026C291.673 190.907 291.33 191.019 291.044 191.225C290.759 191.432 290.545 191.723 290.435 192.058C290.375 192.229 290.345 192.408 290.344 192.588V206.983C290.344 207.204 290.387 207.423 290.472 207.627C290.556 207.831 290.68 208.016 290.836 208.173C290.992 208.329 291.178 208.453 291.382 208.537C291.586 208.621 291.805 208.665 292.026 208.664H306.42C306.866 208.664 307.293 208.487 307.609 208.171C307.924 207.856 308.101 207.429 308.101 206.983V192.588C308.1 192.143 307.923 191.716 307.608 191.401C307.292 191.086 306.866 190.908 306.42 190.907Z" fill="#8957E5"/>
<path d="M306.42 215.447H292.026C291.805 215.447 291.586 215.49 291.382 215.575C291.178 215.659 290.992 215.783 290.836 215.939C290.68 216.095 290.556 216.281 290.472 216.485C290.387 216.689 290.344 216.908 290.344 217.129V231.523C290.344 231.744 290.387 231.963 290.472 232.167C290.556 232.371 290.68 232.557 290.836 232.713C290.992 232.869 291.178 232.993 291.382 233.077C291.586 233.162 291.805 233.205 292.026 233.205H306.42C306.866 233.204 307.294 233.027 307.609 232.712C307.924 232.397 308.101 231.969 308.101 231.523V217.129C308.101 216.683 307.924 216.255 307.609 215.94C307.294 215.625 306.866 215.448 306.42 215.447Z" fill="#E6E6E6"/>
<path d="M336.657 117.286H322.263C321.817 117.286 321.39 117.464 321.074 117.779C320.759 118.094 320.582 118.522 320.582 118.967V133.368C320.582 133.589 320.626 133.807 320.71 134.01C320.795 134.214 320.919 134.399 321.075 134.554C321.231 134.71 321.417 134.833 321.62 134.917C321.824 135.001 322.043 135.044 322.263 135.043H336.657C337.102 135.043 337.529 134.867 337.844 134.553C338.159 134.239 338.337 133.813 338.339 133.368V118.967C338.337 118.522 338.16 118.095 337.845 117.78C337.53 117.465 337.103 117.287 336.657 117.286Z" fill="#8957E5"/>
<path d="M336.657 141.826H322.263C321.817 141.827 321.39 142.004 321.074 142.319C320.759 142.634 320.582 143.062 320.582 143.508V157.909C320.582 158.129 320.626 158.347 320.71 158.551C320.795 158.754 320.919 158.939 321.075 159.095C321.231 159.25 321.417 159.373 321.62 159.457C321.824 159.541 322.043 159.584 322.263 159.583H336.657C337.102 159.584 337.529 159.407 337.844 159.093C338.159 158.78 338.337 158.353 338.339 157.909V143.508C338.337 143.062 338.16 142.635 337.845 142.32C337.53 142.005 337.103 141.828 336.657 141.826Z" fill="#8957E5"/>
<path d="M336.657 166.367H322.263C321.817 166.367 321.39 166.544 321.074 166.859C320.759 167.175 320.582 167.602 320.582 168.048V182.443C320.581 182.663 320.625 182.882 320.709 183.086C320.793 183.291 320.917 183.476 321.073 183.632C321.229 183.789 321.415 183.912 321.619 183.997C321.823 184.081 322.042 184.124 322.263 184.124H336.657C337.103 184.124 337.531 183.946 337.846 183.631C338.161 183.316 338.339 182.888 338.339 182.443V168.048C338.337 167.603 338.16 167.176 337.845 166.861C337.53 166.546 337.103 166.368 336.657 166.367Z" fill="#E6E6E6"/>
<path d="M336.657 190.907H322.263C321.817 190.907 321.39 191.085 321.074 191.4C320.759 191.715 320.582 192.143 320.582 192.588V206.983C320.581 207.204 320.625 207.423 320.709 207.627C320.793 207.831 320.917 208.016 321.073 208.173C321.229 208.329 321.415 208.453 321.619 208.537C321.823 208.621 322.042 208.665 322.263 208.664H336.657C337.103 208.664 337.531 208.487 337.846 208.172C338.161 207.856 338.339 207.429 338.339 206.983V192.588C338.337 192.143 338.16 191.716 337.845 191.401C337.53 191.086 337.103 190.908 336.657 190.907Z" fill="#8957E5"/>
<path d="M336.657 215.447H322.263C322.042 215.447 321.823 215.49 321.619 215.575C321.415 215.659 321.229 215.783 321.073 215.939C320.917 216.095 320.793 216.281 320.709 216.485C320.625 216.689 320.581 216.908 320.582 217.129V231.523C320.581 231.744 320.625 231.963 320.709 232.167C320.793 232.371 320.917 232.557 321.073 232.713C321.229 232.869 321.415 232.993 321.619 233.077C321.823 233.162 322.042 233.205 322.263 233.205H336.657C337.103 233.204 337.531 233.027 337.846 232.712C338.161 232.397 338.339 231.969 338.339 231.523V217.129C338.339 216.683 338.161 216.255 337.846 215.94C337.531 215.625 337.103 215.448 336.657 215.447Z" fill="#8957E5"/>
<path d="M366.895 117.286H352.5C352.054 117.286 351.627 117.464 351.312 117.779C350.996 118.094 350.819 118.521 350.819 118.967V133.368C350.819 133.589 350.863 133.807 350.948 134.01C351.032 134.214 351.156 134.399 351.312 134.554C351.468 134.71 351.654 134.833 351.858 134.917C352.061 135.001 352.28 135.044 352.5 135.043H366.895C367.34 135.043 367.766 134.867 368.081 134.553C368.397 134.239 368.574 133.813 368.576 133.368V118.967C368.575 118.522 368.397 118.095 368.082 117.78C367.767 117.465 367.34 117.287 366.895 117.286Z" fill="#8957E5"/>
<path d="M366.895 141.826H352.5C352.054 141.827 351.627 142.004 351.312 142.319C350.996 142.634 350.819 143.062 350.819 143.508V157.909C350.819 158.129 350.863 158.347 350.948 158.551C351.032 158.754 351.156 158.939 351.312 159.095C351.468 159.25 351.654 159.373 351.858 159.457C352.061 159.541 352.28 159.584 352.5 159.583H366.895C367.34 159.584 367.766 159.407 368.081 159.093C368.397 158.78 368.574 158.353 368.576 157.909V143.508C368.575 143.062 368.397 142.635 368.082 142.32C367.767 142.005 367.34 141.828 366.895 141.826Z" fill="white"/>
<path d="M366.895 166.367H352.5C352.054 166.367 351.627 166.544 351.312 166.859C350.996 167.175 350.819 167.602 350.819 168.048V182.443C350.819 182.663 350.862 182.882 350.946 183.086C351.03 183.291 351.154 183.476 351.31 183.632C351.467 183.789 351.652 183.912 351.856 183.997C352.06 184.081 352.279 184.124 352.5 184.124H366.895C367.341 184.124 367.768 183.946 368.083 183.631C368.399 183.316 368.576 182.888 368.576 182.443V168.048C368.575 167.603 368.397 167.176 368.082 166.861C367.767 166.546 367.34 166.368 366.895 166.367Z" fill="white"/>
<path d="M366.895 190.907H352.5C352.054 190.907 351.627 191.085 351.312 191.4C350.996 191.715 350.819 192.143 350.819 192.588V206.983C350.819 207.204 350.862 207.423 350.946 207.627C351.03 207.831 351.154 208.017 351.31 208.173C351.467 208.329 351.652 208.453 351.856 208.537C352.061 208.621 352.279 208.665 352.5 208.664H366.895C367.341 208.664 367.768 208.487 368.083 208.172C368.399 207.856 368.576 207.429 368.576 206.983V192.588C368.575 192.143 368.397 191.716 368.082 191.401C367.767 191.086 367.34 190.908 366.895 190.907Z" fill="#E6E6E6"/>
<path d="M366.895 215.447H352.5C352.279 215.447 352.061 215.49 351.856 215.575C351.652 215.659 351.467 215.783 351.31 215.939C351.154 216.095 351.03 216.281 350.946 216.485C350.862 216.689 350.819 216.908 350.819 217.129V231.523C350.819 231.744 350.862 231.963 350.946 232.167C351.03 232.371 351.154 232.557 351.31 232.713C351.467 232.869 351.652 232.993 351.856 233.077C352.06 233.162 352.279 233.205 352.5 233.205H366.895C367.341 233.204 367.768 233.027 368.083 232.712C368.399 232.397 368.576 231.969 368.576 231.523V217.129C368.576 216.683 368.399 216.255 368.083 215.94C367.768 215.625 367.341 215.448 366.895 215.447Z" fill="#8957E5"/>
<path d="M397.132 117.286H382.731C382.286 117.288 381.86 117.465 381.546 117.781C381.232 118.096 381.056 118.523 381.056 118.967V133.368C381.056 133.812 381.233 134.238 381.547 134.552C381.861 134.866 382.287 135.043 382.731 135.043H397.132C397.577 135.043 398.004 134.867 398.319 134.553C398.634 134.239 398.812 133.813 398.813 133.368V118.967C398.812 118.522 398.634 118.095 398.319 117.78C398.004 117.465 397.578 117.287 397.132 117.286Z" fill="white"/>
<path d="M397.132 141.826H382.731C382.286 141.828 381.86 142.006 381.546 142.321C381.232 142.636 381.056 143.063 381.056 143.508V157.909C381.056 158.353 381.233 158.779 381.547 159.093C381.861 159.407 382.287 159.583 382.731 159.583H397.132C397.577 159.584 398.004 159.407 398.319 159.093C398.634 158.78 398.812 158.353 398.813 157.909V143.508C398.812 143.062 398.634 142.635 398.319 142.32C398.004 142.005 397.578 141.828 397.132 141.826Z" fill="white"/>
<path d="M397.132 166.367H382.731C382.286 166.368 381.86 166.546 381.546 166.861C381.232 167.177 381.056 167.603 381.056 168.048V182.443C381.056 182.663 381.099 182.881 381.182 183.085C381.266 183.289 381.39 183.474 381.545 183.63C381.701 183.787 381.885 183.911 382.089 183.995C382.292 184.08 382.511 184.124 382.731 184.124H397.132C397.578 184.124 398.005 183.946 398.321 183.631C398.636 183.316 398.813 182.888 398.813 182.443V168.048C398.812 167.603 398.634 167.176 398.319 166.861C398.004 166.546 397.578 166.368 397.132 166.367Z" fill="white"/>
<path d="M397.132 190.907H382.731C382.286 190.909 381.86 191.087 381.546 191.402C381.232 191.717 381.056 192.144 381.056 192.588V206.983C381.056 207.203 381.099 207.422 381.182 207.626C381.266 207.829 381.389 208.015 381.545 208.171C381.701 208.327 381.885 208.451 382.089 208.536C382.292 208.62 382.511 208.664 382.731 208.664H397.132C397.578 208.664 398.005 208.487 398.321 208.172C398.636 207.856 398.813 207.429 398.813 206.983V192.588C398.812 192.143 398.634 191.716 398.319 191.401C398.004 191.086 397.578 190.908 397.132 190.907Z" fill="#8957E5"/>
<path d="M397.132 215.447H382.731C382.511 215.448 382.292 215.491 382.089 215.576C381.885 215.661 381.701 215.785 381.545 215.941C381.389 216.097 381.266 216.282 381.182 216.486C381.099 216.69 381.056 216.908 381.056 217.129V231.523C381.056 231.744 381.099 231.962 381.182 232.166C381.266 232.37 381.389 232.555 381.545 232.711C381.701 232.867 381.885 232.991 382.089 233.076C382.292 233.161 382.511 233.204 382.731 233.205H397.132C397.578 233.204 398.005 233.027 398.321 232.712C398.636 232.397 398.813 231.969 398.813 231.523V217.129C398.813 216.683 398.636 216.255 398.321 215.94C398.005 215.625 397.578 215.448 397.132 215.447Z" fill="#E6E6E6"/>
<path d="M427.369 117.286H412.969C412.524 117.288 412.098 117.465 411.784 117.781C411.47 118.096 411.294 118.523 411.294 118.967V133.368C411.294 133.812 411.47 134.238 411.784 134.552C412.098 134.866 412.524 135.043 412.969 135.043H427.369C427.814 135.043 428.241 134.867 428.556 134.553C428.871 134.239 429.049 133.813 429.051 133.368V118.967C429.049 118.522 428.872 118.095 428.557 117.78C428.242 117.465 427.815 117.287 427.369 117.286Z" fill="white"/>
<path d="M427.369 141.826H412.969C412.524 141.828 412.098 142.006 411.784 142.321C411.47 142.636 411.294 143.063 411.294 143.508V157.909C411.294 158.353 411.47 158.779 411.784 159.093C412.098 159.407 412.524 159.583 412.969 159.583H427.369C427.814 159.584 428.241 159.407 428.556 159.093C428.871 158.78 429.049 158.353 429.051 157.909V143.508C429.049 143.062 428.872 142.635 428.557 142.32C428.242 142.005 427.815 141.828 427.369 141.826Z" fill="white"/>
<path d="M427.369 166.367H412.969C412.524 166.368 412.098 166.546 411.784 166.861C411.47 167.177 411.294 167.603 411.294 168.048V182.443C411.293 182.663 411.336 182.881 411.42 183.085C411.504 183.289 411.627 183.474 411.782 183.63C411.938 183.787 412.123 183.911 412.326 183.995C412.53 184.08 412.748 184.124 412.969 184.124H427.369C427.815 184.124 428.243 183.946 428.558 183.631C428.873 183.316 429.051 182.888 429.051 182.443V168.048C429.049 167.603 428.872 167.176 428.557 166.861C428.242 166.546 427.815 166.368 427.369 166.367Z" fill="#8957E5"/>
<path d="M427.369 190.907H412.969C412.524 190.909 412.098 191.087 411.784 191.402C411.47 191.717 411.294 192.144 411.294 192.588V206.983C411.293 207.203 411.336 207.422 411.42 207.626C411.504 207.829 411.627 208.015 411.782 208.171C411.938 208.327 412.123 208.451 412.326 208.536C412.53 208.62 412.748 208.664 412.969 208.664H427.369C427.815 208.664 428.243 208.487 428.558 208.171C428.873 207.856 429.051 207.429 429.051 206.983V192.588C429.049 192.143 428.872 191.716 428.557 191.401C428.242 191.086 427.815 190.908 427.369 190.907Z" fill="#E6E6E6"/>
<path d="M427.369 215.447H412.969C412.748 215.448 412.53 215.491 412.326 215.576C412.123 215.661 411.938 215.785 411.782 215.941C411.627 216.097 411.504 216.282 411.42 216.486C411.336 216.69 411.293 216.908 411.294 217.129V231.523C411.293 231.744 411.336 231.962 411.42 232.166C411.504 232.37 411.627 232.555 411.782 232.711C411.938 232.867 412.123 232.991 412.326 233.076C412.53 233.161 412.748 233.204 412.969 233.205H427.369C427.815 233.204 428.243 233.027 428.558 232.712C428.873 232.397 429.051 231.969 429.051 231.523V217.129C429.051 216.683 428.873 216.255 428.558 215.94C428.243 215.625 427.815 215.448 427.369 215.447Z" fill="white"/>
<path d="M457.607 117.286H443.206C442.761 117.288 442.335 117.465 442.021 117.781C441.707 118.096 441.531 118.523 441.531 118.967V133.368C441.531 133.812 441.708 134.238 442.022 134.552C442.336 134.866 442.762 135.043 443.206 135.043H457.607C458.052 135.043 458.478 134.867 458.793 134.553C459.109 134.239 459.286 133.813 459.288 133.368V118.967C459.287 118.522 459.109 118.095 458.794 117.78C458.479 117.465 458.052 117.287 457.607 117.286Z" fill="#8957E5"/>
<path d="M457.607 141.826H443.206C442.761 141.828 442.335 142.006 442.021 142.321C441.707 142.636 441.531 143.063 441.531 143.508V157.909C441.531 158.353 441.708 158.779 442.022 159.093C442.336 159.407 442.762 159.583 443.206 159.583H457.607C458.052 159.584 458.478 159.407 458.793 159.093C459.109 158.78 459.286 158.353 459.288 157.909V143.508C459.287 143.062 459.109 142.635 458.794 142.32C458.479 142.005 458.052 141.828 457.607 141.826Z" fill="#8957E5"/>
<path d="M457.607 166.367H443.206C442.761 166.368 442.335 166.546 442.021 166.861C441.707 167.177 441.531 167.603 441.531 168.048V182.443C441.53 182.663 441.573 182.881 441.657 183.085C441.741 183.289 441.864 183.474 442.02 183.63C442.175 183.787 442.36 183.911 442.564 183.995C442.767 184.08 442.985 184.124 443.206 184.124H457.607C458.053 184.124 458.48 183.946 458.795 183.631C459.111 183.316 459.288 182.888 459.288 182.443V168.048C459.287 167.603 459.109 167.176 458.794 166.861C458.479 166.546 458.052 166.368 457.607 166.367Z" fill="#E6E6E6"/>
<path d="M457.607 190.907H443.206C442.761 190.909 442.335 191.087 442.021 191.402C441.707 191.717 441.531 192.144 441.531 192.588V206.983C441.53 207.203 441.573 207.422 441.657 207.626C441.741 207.829 441.864 208.015 442.02 208.171C442.175 208.327 442.36 208.451 442.564 208.536C442.767 208.62 442.985 208.664 443.206 208.664H457.607C458.053 208.664 458.48 208.487 458.795 208.171C459.111 207.856 459.288 207.429 459.288 206.983V192.588C459.287 192.143 459.109 191.716 458.794 191.401C458.479 191.086 458.052 190.908 457.607 190.907Z" fill="white"/>
<path d="M457.607 215.447H443.206C442.985 215.448 442.767 215.491 442.564 215.576C442.36 215.661 442.175 215.785 442.02 215.941C441.864 216.097 441.741 216.282 441.657 216.486C441.573 216.69 441.53 216.908 441.531 217.129V231.523C441.53 231.744 441.573 231.962 441.657 232.166C441.741 232.37 441.864 232.555 442.02 232.711C442.175 232.867 442.36 232.991 442.564 233.076C442.767 233.161 442.985 233.204 443.206 233.205H457.607C458.053 233.204 458.48 233.027 458.795 232.712C459.111 232.397 459.288 231.969 459.288 231.523V217.129C459.288 216.683 459.111 216.255 458.795 215.94C458.48 215.625 458.053 215.448 457.607 215.447Z" fill="#8957E5"/>
<path d="M487.844 117.286H473.443C472.998 117.288 472.572 117.465 472.258 117.781C471.944 118.096 471.768 118.523 471.768 118.967V133.368C471.768 133.812 471.945 134.238 472.259 134.552C472.573 134.866 472.999 135.043 473.443 135.043H487.844C488.289 135.043 488.716 134.867 489.031 134.553C489.346 134.239 489.524 133.813 489.525 133.368V118.967C489.524 118.522 489.346 118.095 489.031 117.78C488.716 117.465 488.289 117.287 487.844 117.286Z" fill="#8957E5"/>
<path d="M487.844 141.826H473.443C472.998 141.828 472.572 142.006 472.258 142.321C471.944 142.636 471.768 143.063 471.768 143.508V157.909C471.768 158.353 471.945 158.779 472.259 159.093C472.573 159.407 472.999 159.583 473.443 159.583H487.844C488.289 159.584 488.716 159.407 489.031 159.093C489.346 158.78 489.524 158.353 489.525 157.909V143.508C489.524 143.062 489.346 142.635 489.031 142.32C488.716 142.005 488.29 141.828 487.844 141.826Z" fill="#8957E5"/>
<path d="M487.844 166.367H473.443C472.998 166.368 472.572 166.546 472.258 166.861C471.944 167.177 471.768 167.603 471.768 168.048V182.443C471.768 182.663 471.811 182.881 471.894 183.085C471.978 183.289 472.102 183.474 472.257 183.63C472.413 183.787 472.597 183.911 472.801 183.995C473.005 184.08 473.223 184.124 473.443 184.124H487.844C488.29 184.124 488.717 183.946 489.033 183.631C489.348 183.316 489.525 182.888 489.525 182.443V168.048C489.524 167.603 489.346 167.176 489.031 166.861C488.716 166.546 488.29 166.368 487.844 166.367Z" fill="#E6E6E6"/>
<path d="M487.844 190.907H473.443C472.998 190.909 472.572 191.087 472.258 191.402C471.944 191.717 471.768 192.144 471.768 192.588V206.983C471.768 207.203 471.811 207.422 471.894 207.626C471.978 207.829 472.102 208.015 472.257 208.171C472.413 208.327 472.597 208.451 472.801 208.536C473.005 208.62 473.223 208.664 473.443 208.664H487.844C488.29 208.664 488.717 208.487 489.033 208.171C489.348 207.856 489.525 207.429 489.525 206.983V192.588C489.524 192.143 489.346 191.716 489.031 191.401C488.716 191.086 488.29 190.908 487.844 190.907Z" fill="#8957E5"/>
<path d="M487.844 215.447H473.443C473.223 215.448 473.005 215.491 472.801 215.576C472.597 215.661 472.413 215.785 472.257 215.941C472.102 216.097 471.978 216.282 471.894 216.486C471.811 216.69 471.768 216.908 471.768 217.129V231.523C471.768 231.744 471.811 231.962 471.894 232.166C471.978 232.37 472.102 232.555 472.257 232.711C472.413 232.867 472.597 232.991 472.801 233.076C473.004 233.161 473.223 233.204 473.443 233.205H487.844C488.29 233.204 488.717 233.027 489.033 232.712C489.348 232.397 489.525 231.969 489.525 231.523V217.129C489.525 216.683 489.348 216.255 489.033 215.94C488.717 215.625 488.29 215.448 487.844 215.447Z" fill="#8957E5"/>
<path d="M518.081 117.286H503.68C503.236 117.288 502.81 117.465 502.496 117.781C502.182 118.096 502.005 118.523 502.006 118.967V133.368C502.006 133.812 502.182 134.238 502.496 134.552C502.81 134.866 503.236 135.043 503.68 135.043H518.081C518.526 135.043 518.953 134.867 519.268 134.553C519.583 134.239 519.761 133.813 519.763 133.368V118.967C519.761 118.522 519.584 118.095 519.269 117.78C518.954 117.465 518.527 117.287 518.081 117.286Z" fill="#E6E6E6"/>
<path d="M518.081 141.826H503.68C503.236 141.828 502.81 142.006 502.496 142.321C502.182 142.636 502.005 143.063 502.006 143.508V157.909C502.006 158.353 502.182 158.779 502.496 159.093C502.81 159.407 503.236 159.583 503.68 159.583H518.081C518.526 159.584 518.953 159.407 519.268 159.093C519.583 158.78 519.761 158.353 519.763 157.909V143.508C519.761 143.062 519.584 142.635 519.269 142.32C518.954 142.005 518.527 141.828 518.081 141.826Z" fill="#8957E5"/>
<path d="M518.081 166.367H503.68C503.236 166.368 502.81 166.546 502.496 166.861C502.182 167.177 502.005 167.603 502.006 168.048V182.443C502.005 182.663 502.048 182.881 502.132 183.085C502.216 183.289 502.339 183.474 502.494 183.63C502.65 183.787 502.835 183.911 503.038 183.995C503.242 184.08 503.46 184.124 503.68 184.124H518.081C518.527 184.124 518.955 183.946 519.27 183.631C519.585 183.316 519.762 182.888 519.763 182.443V168.048C519.761 167.603 519.584 167.176 519.269 166.861C518.954 166.546 518.527 166.368 518.081 166.367Z" fill="#8957E5"/>
<path d="M518.081 190.907H503.68C503.236 190.909 502.81 191.087 502.496 191.402C502.182 191.717 502.005 192.144 502.006 192.588V206.983C502.005 207.203 502.048 207.422 502.132 207.626C502.216 207.829 502.339 208.015 502.494 208.171C502.65 208.327 502.835 208.451 503.038 208.536C503.242 208.62 503.46 208.664 503.68 208.664H518.081C518.527 208.664 518.955 208.487 519.27 208.171C519.585 207.856 519.762 207.429 519.763 206.983V192.588C519.761 192.143 519.584 191.716 519.269 191.401C518.954 191.086 518.527 190.908 518.081 190.907Z" fill="#8957E5"/>
<path d="M518.081 215.447H503.68C503.46 215.448 503.242 215.491 503.038 215.576C502.835 215.661 502.65 215.785 502.494 215.941C502.339 216.097 502.216 216.282 502.132 216.486C502.048 216.69 502.005 216.908 502.006 217.129V231.523C502.005 231.744 502.048 231.962 502.132 232.166C502.216 232.37 502.339 232.555 502.494 232.711C502.65 232.867 502.835 232.991 503.038 233.076C503.242 233.161 503.46 233.204 503.68 233.205H518.081C518.527 233.204 518.955 233.027 519.27 232.712C519.585 232.397 519.762 231.969 519.763 231.523V217.129C519.762 216.683 519.585 216.255 519.27 215.94C518.955 215.625 518.527 215.448 518.081 215.447Z" fill="#E6E6E6"/>
<path d="M548.319 117.286H533.918C533.473 117.288 533.047 117.466 532.733 117.781C532.419 118.096 532.243 118.523 532.243 118.967V133.368C532.243 133.812 532.42 134.238 532.734 134.552C533.048 134.866 533.474 135.043 533.918 135.043H548.319C548.764 135.043 549.19 134.867 549.505 134.553C549.821 134.239 549.998 133.813 550 133.368V118.967C549.999 118.522 549.821 118.095 549.506 117.78C549.191 117.465 548.764 117.287 548.319 117.286Z" fill="#E6E6E6"/>
<path d="M548.319 141.826H533.918C533.473 141.828 533.047 142.006 532.733 142.321C532.419 142.636 532.243 143.063 532.243 143.508V157.909C532.243 158.353 532.42 158.779 532.734 159.093C533.048 159.407 533.474 159.583 533.918 159.583H548.319C548.764 159.584 549.19 159.407 549.505 159.093C549.821 158.78 549.998 158.353 550 157.909V143.508C549.999 143.062 549.821 142.635 549.506 142.32C549.191 142.005 548.764 141.828 548.319 141.826Z" fill="#E6E6E6"/>
<path d="M548.319 166.367H533.918C533.473 166.368 533.047 166.546 532.733 166.861C532.419 167.176 532.243 167.603 532.243 168.048V182.443C532.242 182.663 532.285 182.881 532.369 183.085C532.453 183.289 532.576 183.474 532.732 183.63C532.887 183.787 533.072 183.911 533.276 183.995C533.479 184.08 533.697 184.124 533.918 184.124H548.319C548.765 184.124 549.192 183.946 549.507 183.631C549.823 183.316 550 182.888 550 182.443V168.048C549.999 167.603 549.821 167.176 549.506 166.861C549.191 166.546 548.764 166.368 548.319 166.367Z" fill="#8957E5"/>
<path d="M548.319 190.907H533.918C533.473 190.909 533.047 191.087 532.733 191.402C532.419 191.717 532.243 192.144 532.243 192.588V206.983C532.242 207.203 532.285 207.422 532.369 207.626C532.453 207.829 532.576 208.015 532.732 208.171C532.887 208.327 533.072 208.451 533.276 208.536C533.479 208.62 533.697 208.664 533.918 208.664H548.319C548.765 208.664 549.192 208.487 549.507 208.171C549.823 207.856 550 207.429 550 206.983V192.588C549.999 192.143 549.821 191.716 549.506 191.401C549.191 191.086 548.764 190.908 548.319 190.907Z" fill="#E6E6E6"/>
<path d="M548.319 215.447H533.918C533.697 215.448 533.479 215.491 533.276 215.576C533.072 215.661 532.887 215.785 532.732 215.941C532.576 216.097 532.453 216.282 532.369 216.486C532.285 216.69 532.242 216.908 532.243 217.129V231.523C532.242 231.744 532.285 231.962 532.369 232.166C532.453 232.37 532.576 232.555 532.732 232.711C532.887 232.867 533.072 232.991 533.276 233.076C533.479 233.161 533.697 233.204 533.918 233.205H548.319C548.765 233.204 549.192 233.027 549.507 232.712C549.823 232.397 550 231.969 550 231.523V217.129C550 216.683 549.823 216.255 549.507 215.94C549.192 215.625 548.765 215.448 548.319 215.447Z" fill="#E6E6E6"/>
<path d="M217.336 427.679H216.935L217.278 427.634L217.336 427.679Z" fill="#2F2E41"/>
<path d="M182.882 159.322C207.282 159.322 227.062 139.541 227.062 115.141C227.062 90.7412 207.282 70.961 182.882 70.961C158.482 70.961 138.701 90.7412 138.701 115.141C138.701 139.541 158.482 159.322 182.882 159.322Z" fill="#FFB6B6"/>
<path d="M221.572 82.749C221.572 82.749 233.127 60.6589 207.705 58.6507C207.705 58.6507 186.033 38.991 163.943 55.0566C163.943 55.0566 151.894 55.0566 145.305 68.6916C145.305 68.6916 135.828 65.0976 133.746 74.7162C133.746 74.7162 126.811 94.7982 133.746 112.872C140.68 130.946 142.983 132.954 142.983 132.954C142.983 132.954 131.589 95.0613 159.324 93.0531C187.059 91.0448 218.096 73.7122 220.407 95.8023C222.719 117.892 226.197 123.335 226.197 123.335C226.197 123.335 248.15 91.786 221.572 82.749Z" fill="#2F2E41"/>
<path d="M297.167 224.022L297.024 224.772L295.427 233.204L284.389 291.532L283.736 294.966L282.365 302.228L280.489 312.135L276.331 334.088L275.142 340.38L274.695 342.74L274.54 343.568L273.305 350.08L272.93 352.046L269.917 374.375L267.285 393.832L276.092 402.64L270.841 407.89L267.395 427.633L267.401 427.678H126.736C121.045 423.992 115.436 420.192 109.91 416.277L111.067 407.612C111.067 407.612 115.051 392.138 113.376 390.289C111.707 388.439 108.047 385.135 108.047 385.135L112.658 374.375L113.298 372.881L112.225 350.617L112.199 350.08L111.843 342.74L111.798 341.796L111.727 340.38L110.362 312.134L110.337 311.669L109.923 303.107L109.535 294.966L109.367 291.532L107.705 257.176L106.58 233.845L105.597 213.533L109.548 212.195L151.806 197.833L169.311 175.077L205.743 175.349L223.578 175.485L253.337 203.083L260.107 206.317L260.159 206.343L265.015 208.664L277.327 214.542L290.344 220.763L297.024 223.951L297.167 224.022Z" fill="#CACACA"/>
<path d="M174.019 361.397C171.349 362.431 168.485 362.868 165.629 362.675C162.772 362.483 159.992 361.667 157.485 360.284C154.978 358.901 152.805 356.985 151.118 354.672C149.432 352.358 148.273 349.703 147.724 346.893L78.8176 337.117L102.771 310.021L164.533 323.458C169.315 322.848 174.154 324.014 178.134 326.733C182.114 329.453 184.958 333.538 186.128 338.215C187.297 342.891 186.71 347.834 184.478 352.107C182.247 356.379 178.525 359.685 174.019 361.397V361.397Z" fill="#FFB6B6"/>
<path d="M143.296 312.135C142.02 310.516 140.213 309.401 138.194 308.985L109.923 303.107L107.019 302.506C105.332 302.154 103.738 301.449 102.342 300.439C100.945 299.428 99.7783 298.134 98.9167 296.641C98.023 295.074 97.4823 293.33 97.3324 291.532C97.1977 289.898 97.3934 288.253 97.9079 286.695L107.705 257.176L114.061 238.022C114.832 235.712 115.286 233.308 115.413 230.877C115.767 224.147 113.685 217.515 109.548 212.195C105.91 207.519 100.866 204.137 95.1587 202.549C89.4517 200.961 83.3852 201.25 77.8553 203.375C77.6937 203.433 77.5255 203.497 77.3639 203.562C73.3982 205.146 69.855 207.63 67.0145 210.818C64.174 214.006 62.114 217.812 60.9972 221.933L54.091 247.056L39.8453 298.846C38.4192 304.035 38.1311 309.471 39.0007 314.781C39.8703 320.092 41.877 325.152 44.8835 329.615C47.89 334.078 51.8254 337.839 56.4202 340.64C61.0149 343.441 66.1607 345.216 71.5052 345.844L112.225 350.617L131.068 352.828C133.247 353.09 135.445 352.521 137.223 351.235C139.002 349.95 140.23 348.041 140.664 345.89C140.695 345.773 140.719 345.654 140.736 345.534L141.188 342.74L145.023 319.215L145.062 318.976C145.261 317.776 145.208 316.547 144.903 315.368C144.599 314.19 144.052 313.088 143.296 312.135Z" fill="#CACACA"/>
<path d="M217.91 362.151C220.699 362.799 223.596 362.827 226.397 362.234C229.197 361.64 231.834 360.44 234.121 358.718C236.408 356.995 238.29 354.792 239.633 352.264C240.976 349.735 241.749 346.943 241.897 344.084L308.736 324.688L281.2 301.241L221.95 323.254C217.13 323.324 212.504 325.16 208.947 328.414C205.39 331.668 203.151 336.113 202.653 340.908C202.155 345.703 203.433 350.513 206.245 354.429C209.057 358.344 213.207 361.092 217.91 362.151V362.151Z" fill="#FFB6B6"/>
<path d="M341.921 281.302L310.132 208.14C307.532 202.134 302.888 197.243 297.024 194.334C295.212 193.442 293.308 192.748 291.347 192.265C291.043 192.188 290.739 192.116 290.435 192.058C286.276 191.15 281.961 191.23 277.838 192.291C274.069 193.259 270.547 195.011 267.501 197.432C264.454 199.853 261.953 202.89 260.159 206.343C260.139 206.371 260.122 206.402 260.107 206.433C258.103 210.31 257.038 214.602 256.996 218.966C256.955 223.329 257.938 227.642 259.868 231.556L260.262 232.344L282.727 277.461C283.494 279.004 283.926 280.692 283.995 282.413C284.064 284.135 283.768 285.851 283.127 287.451C282.486 289.05 281.514 290.495 280.275 291.693C279.036 292.89 277.557 293.811 275.937 294.397L274.359 294.966L245.984 305.215C243.855 305.975 242.104 307.531 241.099 309.557C240.094 311.582 239.915 313.918 240.598 316.073L240.669 316.299L248.623 341.751C248.661 341.867 248.7 341.984 248.745 342.1C248.815 342.32 248.902 342.534 249.004 342.74C249.849 344.636 251.344 346.168 253.218 347.061C255.092 347.953 257.223 348.148 259.228 347.61L274.54 343.568L277.664 342.74L317.206 332.297C322.409 330.922 327.254 328.439 331.408 325.018C335.562 321.597 338.928 317.319 341.275 312.476C343.622 307.633 344.895 302.34 345.007 296.96C345.118 291.579 344.066 286.238 341.921 281.302L341.921 281.302Z" fill="#CACACA"/>
<path d="M29.0332 342.74C38.1965 353.917 48.0789 364.484 58.6174 374.375H350.884C353.699 374.379 356.399 375.5 358.389 377.492C360.38 379.483 361.499 382.183 361.502 384.999L361.922 459.06C379.902 450.799 396.74 440.251 412.018 427.678C416.26 424.192 420.37 420.556 424.349 416.769C426.955 414.299 429.499 411.768 431.98 409.177C450.58 389.8 465.642 367.315 476.482 342.74H29.0332Z" fill="#3F3D56"/>
<path d="M431.98 409.177C429.503 411.77 426.96 414.301 424.35 416.769H362.135V409.177H431.98Z" fill="white"/>
<path d="M296.584 166.367C296.277 165.799 295.822 165.326 295.268 164.996C294.714 164.666 294.08 164.491 293.435 164.492H81.4377C80.4872 164.494 79.5764 164.873 78.905 165.546C78.2335 166.218 77.856 167.13 77.8552 168.08V294.966H297.024V168.08C297.027 167.481 296.876 166.891 296.584 166.367Z" fill="#3F3D56"/>
<path d="M77.6633 291.531V307.189C77.6633 307.838 77.7912 308.48 78.0396 309.08C78.288 309.68 78.6521 310.225 79.111 310.684C79.57 311.143 80.1149 311.507 80.7146 311.755C81.3143 312.004 81.9571 312.132 82.6062 312.132H163.5V343.033H162.425C162.341 343.033 162.257 343.049 162.18 343.082C162.102 343.114 162.031 343.161 161.971 343.221C161.912 343.28 161.864 343.351 161.832 343.429C161.8 343.507 161.783 343.59 161.783 343.675V345.824C161.783 345.908 161.8 345.992 161.832 346.07C161.864 346.148 161.912 346.219 161.971 346.278C162.031 346.338 162.102 346.385 162.18 346.417C162.257 346.45 162.341 346.466 162.425 346.466H212.643C212.727 346.466 212.811 346.45 212.889 346.417C212.967 346.385 213.038 346.338 213.097 346.278C213.157 346.219 213.204 346.148 213.236 346.07C213.269 345.992 213.285 345.908 213.285 345.824V343.675C213.285 343.59 213.269 343.507 213.236 343.429C213.204 343.351 213.157 343.28 213.097 343.221C213.037 343.161 212.967 343.114 212.889 343.082C212.811 343.049 212.727 343.033 212.643 343.033H211.568V312.132H292.462C293.111 312.132 293.754 312.004 294.354 311.755C294.953 311.507 295.498 311.143 295.957 310.684C296.416 310.225 296.78 309.68 297.029 309.08C297.277 308.48 297.405 307.838 297.405 307.189V291.531H77.6633Z" fill="#3F3D56"/>
<path d="M184.879 246.591C196.06 246.591 205.123 237.527 205.123 226.346C205.123 215.166 196.06 206.102 184.879 206.102C173.698 206.102 164.635 215.166 164.635 226.346C164.635 237.527 173.698 246.591 184.879 246.591Z" fill="#8957E5"/>
<path d="M236.459 112.727H233.226C233.226 88.2838 209.035 72.2663 184.63 72.2534C181.08 72.243 177.538 72.5874 174.057 73.2816C170.139 74.064 166.071 75.0017 162.075 76.2238C146.316 81.0543 131.702 90.3919 131.702 112.727C131.698 117.065 132.25 121.385 133.344 125.583L130.214 126.397C129.054 121.933 128.467 117.34 128.469 112.727C128.469 93.2113 136.481 79.8063 150.319 71.8137C157.594 67.6104 166.472 64.901 176.644 63.5818C180.877 63.0187 185.156 62.8887 189.415 63.1938C217.48 65.2114 236.459 86.7319 236.459 112.727Z" fill="#8957E5"/>
<path d="M241.846 114.518L240.572 105.103C240.257 102.725 239.112 100.536 237.338 98.9212C236.2 97.8688 234.837 97.089 233.352 96.6409C231.868 96.1928 230.301 96.088 228.77 96.3346L226.746 96.6127C226.193 96.6856 225.659 96.8677 225.176 97.1486C224.693 97.4294 224.271 97.8033 223.933 98.2487C223.593 98.6925 223.345 99.1993 223.201 99.7398C223.058 100.28 223.023 100.844 223.099 101.398L226.041 123.086C226.163 123.97 226.559 124.794 227.174 125.44C227.789 126.087 228.592 126.523 229.469 126.688C229.728 126.74 229.993 126.766 230.258 126.766C230.448 126.766 230.638 126.753 230.827 126.727L233.09 126.423C234.47 126.24 235.798 125.777 236.992 125.062C238.186 124.347 239.222 123.395 240.035 122.265C240.21 122.02 240.378 121.767 240.533 121.509C241.745 119.393 242.207 116.93 241.846 114.518Z" fill="#8957E5"/>
<path d="M225.44 97.0071C224.846 97.2956 224.33 97.7212 223.933 98.2487C223.593 98.6925 223.345 99.1993 223.201 99.7399C223.058 100.28 223.023 100.844 223.099 101.398L226.041 123.087C226.163 123.971 226.559 124.794 227.174 125.44C227.789 126.087 228.592 126.523 229.469 126.688L225.44 97.0071Z" fill="white"/>
<path d="M241.846 114.518L240.572 105.103C240.258 102.725 239.112 100.536 237.339 98.9212L240.268 120.5C240.312 120.846 240.401 121.185 240.533 121.509C241.745 119.393 242.208 116.93 241.846 114.518Z" fill="#3F3D56"/>
<path d="M231.778 121.302C232.662 121.182 233.107 119.077 232.771 116.599C232.435 114.122 231.445 112.211 230.561 112.331C229.676 112.451 229.231 114.557 229.567 117.034C229.903 119.511 230.893 121.422 231.778 121.302Z" fill="#3F3D56"/>
<path d="M229.838 109.663C230.722 109.543 231.167 107.437 230.831 104.96C230.495 102.483 229.505 100.572 228.621 100.692C227.736 100.812 227.291 102.917 227.627 105.394C227.963 107.872 228.953 109.783 229.838 109.663Z" fill="#3F3D56"/>
<path d="M242.124 114.189C243.009 114.069 243.453 111.964 243.117 109.486C242.781 107.009 241.792 105.098 240.907 105.218C240.022 105.338 239.577 107.444 239.913 109.921C240.249 112.398 241.239 114.309 242.124 114.189Z" fill="#3F3D56"/>
<path d="M184.63 72.2534C181.08 72.243 177.539 72.5874 174.057 73.2816C170.139 74.064 166.071 75.0017 162.075 76.2238C155.835 75.9199 151.244 74.3033 150.319 71.8137C157.594 67.6104 166.472 64.901 176.644 63.5818C180.877 63.0187 185.156 62.8887 189.415 63.1938C189.866 63.4582 190.256 63.8149 190.559 64.2407C190.862 64.6664 191.072 65.1515 191.174 65.664C191.478 67.9144 188.911 70.307 184.63 72.2534Z" fill="#3F3D56"/>
<path d="M143.348 135.166L138.369 114.467C138.191 113.72 137.797 113.042 137.236 112.519C136.674 111.995 135.971 111.649 135.213 111.524C134.999 111.491 134.783 111.474 134.567 111.473C134.261 111.474 133.958 111.511 133.661 111.583L131.734 112.048C129.253 112.648 127.111 114.208 125.779 116.385C124.447 118.563 124.033 121.18 124.628 123.662L126.858 132.948C127.368 135.134 128.581 137.092 130.312 138.522C130.592 138.748 130.886 138.958 131.191 139.149C132.275 139.829 133.484 140.284 134.747 140.488C136.01 140.693 137.301 140.642 138.543 140.339L140.464 139.874C140.972 139.755 141.45 139.533 141.867 139.22C142.488 138.768 142.961 138.14 143.224 137.418C143.488 136.696 143.531 135.912 143.348 135.166Z" fill="#8957E5"/>
<path d="M132.91 131.315C133.778 131.106 134.007 128.966 133.422 126.535C132.837 124.105 131.66 122.304 130.791 122.513C129.923 122.722 129.694 124.861 130.279 127.292C130.864 129.722 132.042 131.523 132.91 131.315Z" fill="#3F3D56"/>
<path d="M126.443 133.255C127.311 133.046 127.541 130.906 126.956 128.475C126.371 126.045 125.193 124.244 124.325 124.453C123.457 124.662 123.227 126.801 123.812 129.232C124.397 131.662 125.575 133.463 126.443 133.255Z" fill="#3F3D56"/>
<path d="M143.665 135.088L138.686 114.389C138.492 113.581 138.064 112.848 137.455 112.282C136.847 111.716 136.085 111.343 135.265 111.208L142.061 139.479C142.732 138.987 143.243 138.308 143.528 137.527C143.814 136.745 143.861 135.897 143.665 135.088Z" fill="white"/>
<path d="M125.753 119.562C125.615 118.987 125.357 118.447 124.996 117.978C124.296 119.791 124.168 121.774 124.628 123.662L126.858 132.948C127.368 135.134 128.581 137.092 130.312 138.522L125.753 119.562Z" fill="#3F3D56"/>
</g>
<defs>
<clipPath id="clip0_54_2283">
<rect width="550" height="479.057" fill="white" transform="translate(0 0.857117)"/>
</clipPath>
</defs>
</svg>
