<svg width="61" height="63" viewBox="0 0 61 63" fill="none" xmlns="http://www.w3.org/2000/svg">
<path d="M7.05986 58.5883C7.47981 59.811 8.27644 60.8692 9.33535 61.6109C10.3943 62.3527 11.661 62.7398 12.9536 62.7166L38.2057 62.0667C39.5078 62.0414 40.7668 61.5953 41.7944 60.7952C42.822 59.995 43.563 58.8838 43.9067 57.6277L47.4802 19.4164C48.748 19.9907 50.1282 20.2743 51.5198 20.2464C52.7288 20.2161 53.92 19.9479 55.0253 19.4572C56.1307 18.9665 57.1285 18.2629 57.962 17.3866C58.7954 16.5102 59.448 15.4783 59.8826 14.3497C60.3172 13.2211 60.5254 12.018 60.495 10.809C60.4647 9.59997 60.1965 8.4088 59.7058 7.30345C59.2151 6.1981 58.5115 5.20023 57.6351 4.36681C56.7588 3.53338 55.7269 2.88077 54.5983 2.44615C53.4697 2.01152 52.2666 1.8034 51.0576 1.83375C50.5014 1.83196 49.9465 1.8897 49.4026 2.00591C48.8111 1.36592 48.0921 0.85689 47.2919 0.511637C46.4918 0.166384 45.6281 -0.00746063 44.7567 0.00129133L5.91315 1.00435C5.59093 1.01625 5.27034 1.05606 4.955 1.12333C4.10316 1.28213 3.2952 1.62155 2.58554 2.11877C1.87589 2.616 1.28099 3.25945 0.840873 4.00587C0.400753 4.75228 0.125585 5.58435 0.0339891 6.44601C-0.0576069 7.30767 0.0364498 8.17891 0.309816 9.00117L7.05986 58.5883ZM48.213 16.8219L50.7558 7.71617C51.0451 6.66432 51.0517 5.55478 50.7752 4.49951C50.8986 4.49919 51.0074 4.4407 51.1308 4.4404C52.8743 4.40435 54.561 5.06118 55.821 6.26682C57.081 7.47245 57.8115 9.12851 57.8523 10.8719C57.8931 12.6153 57.2409 14.3038 56.0387 15.5671C54.8366 16.8304 53.1825 17.5654 51.4392 17.611C50.3121 17.6462 49.1966 17.3734 48.213 16.8219Z" fill="#2F2E41"/>
<path d="M4.95508 1.12344C5.78263 5.85525 15.0868 9.1817 26.2743 8.6035C36.5619 8.12951 44.9737 4.51711 46.5148 0.235799C45.9445 0.0671124 45.3514 -0.0119258 44.7568 0.00145381L5.91323 1.00446C5.59101 1.01635 5.27042 1.05617 4.95508 1.12344V1.12344Z" fill="#3F3D56"/>
<path d="M28.3248 37.5909C28.3759 37.578 28.4245 37.5566 28.4686 37.5276L33.9525 33.9382C34.0188 33.895 34.0733 33.8359 34.111 33.7663C34.1487 33.6967 34.1685 33.6189 34.1685 33.5397C34.1686 33.4606 34.1488 33.3827 34.1112 33.3131C34.0735 33.2435 34.0191 33.1844 33.9528 33.1411L28.2529 29.4077C28.2006 29.3731 28.1419 29.3492 28.0803 29.3373C28.0188 29.3254 27.9554 29.3257 27.894 29.3384C27.8326 29.351 27.7742 29.3757 27.7223 29.411C27.6704 29.4462 27.626 29.4913 27.5916 29.5438C27.5572 29.5963 27.5336 29.655 27.5219 29.7167C27.5103 29.7783 27.5109 29.8416 27.5239 29.903C27.5368 29.9644 27.5617 30.0226 27.5972 30.0743C27.6326 30.1261 27.678 30.1703 27.7306 30.2045L32.8216 33.539L27.9469 36.7302C27.8525 36.7919 27.7831 36.8851 27.7509 36.9932C27.7188 37.1013 27.726 37.2173 27.7714 37.3206C27.8167 37.4239 27.8972 37.5076 27.9985 37.5571C28.0998 37.6067 28.2154 37.6186 28.3247 37.5909H28.3248Z" fill="#8957E5"/>
<path d="M19.6636 37.9906C19.7556 37.9673 19.8386 37.9171 19.9019 37.8463C19.9652 37.7755 20.0059 37.6874 20.0188 37.5934C20.0317 37.4993 20.0162 37.4036 19.9744 37.3184C19.9325 37.2332 19.8661 37.1624 19.7838 37.1152L14.7289 34.2171L19.6146 30.5881C19.6648 30.5508 19.7072 30.5039 19.7393 30.4502C19.7714 30.3966 19.7926 30.3371 19.8018 30.2752C19.8109 30.2134 19.8077 30.1503 19.7924 30.0896C19.7772 30.029 19.7502 29.9719 19.7129 29.9217C19.6756 29.8715 19.6287 29.8292 19.575 29.7971C19.5214 29.765 19.4619 29.7437 19.4 29.7346C19.3382 29.7255 19.2751 29.7286 19.2144 29.7439C19.1538 29.7591 19.0967 29.7862 19.0465 29.8235L13.5764 33.8867C13.5129 33.9338 13.4621 33.996 13.4286 34.0676C13.3951 34.1393 13.38 34.2182 13.3846 34.2972C13.3893 34.3762 13.4136 34.4527 13.4552 34.52C13.4969 34.5872 13.5547 34.643 13.6233 34.6823L19.3094 37.942C19.4167 38.0036 19.5437 38.021 19.6636 37.9906V37.9906Z" fill="#8957E5"/>
<path d="M27.7793 40.7366C27.8255 40.7251 27.8695 40.7065 27.9099 40.6815C27.9634 40.649 28.01 40.6063 28.047 40.5557C28.084 40.5052 28.1107 40.4479 28.1255 40.3871C28.1403 40.3262 28.1431 40.2631 28.1335 40.2013C28.1239 40.1394 28.1022 40.08 28.0696 40.0265L20.2957 27.2456C20.2298 27.1379 20.1238 27.0606 20.0011 27.0309C19.8783 27.0012 19.7487 27.0215 19.6409 27.0872C19.533 27.153 19.4556 27.2588 19.4257 27.3815C19.3957 27.5042 19.4158 27.6338 19.4813 27.7418L27.2552 40.5227C27.3082 40.6097 27.3877 40.6774 27.4821 40.7158C27.5764 40.7543 27.6806 40.7616 27.7793 40.7366Z" fill="#8957E5"/>
</svg>
