<svg xmlns="http://www.w3.org/2000/svg" viewBox="0 0 64 64"><path fill-rule="evenodd" d="M7.1 30.19l11.98-6v0c.98-.5 2.18-.1 2.68.89 .49.98.09 2.18-.9 2.68l-8.42 4.21 8.41 4.21v0c.98.49 1.38 1.69.89 2.68 -.5.98-1.7 1.38-2.69.89l-11.99-6h0c-.99-.5-1.39-1.71-.89-2.69 .19-.39.5-.7.88-.89Zm26.93-12.76v0c.3-1.07 1.41-1.67 2.47-1.37 1.05.3 1.66 1.4 1.36 2.45l-8 27.983v0c-.31 1.06-1.42 1.67-2.48 1.37 -1.07-.31-1.68-1.41-1.38-2.48Zm8.14 7.65v0c.49-.99 1.69-1.4 2.68-.9l12.01 6.01v0c.98.49 1.38 1.7.89 2.69 -.2.38-.51.69-.9.89l-12.02 6.01v0c-1 .48-2.2.08-2.69-.92 -.49-.99-.09-2.18.89-2.68l8.43-4.22 -8.44-4.22h-.001c-.99-.5-1.39-1.7-.9-2.69Z" fill="#8D5BC1" /></svg>