<svg width="550" height="321" viewBox="0 0 550 321" fill="none" xmlns="http://www.w3.org/2000/svg">
<g clip-path="url(#clip0_54_2214)">
<path d="M177.629 312.455C263.911 312.455 333.857 242.51 333.857 156.228C333.857 69.9455 263.911 0 177.629 0C91.3471 0 21.4016 69.9455 21.4016 156.228C21.4016 242.51 91.3471 312.455 177.629 312.455Z" fill="#F2F2F2"/>
<path d="M550 277.139C549.999 277.519 549.969 277.898 549.909 278.273C546.089 301.685 424.468 320.475 275 320.475C125.532 320.475 3.91099 301.685 0.0909523 278.273C0.0312357 277.898 0.000826922 277.519 0 277.139C0 277.032 -1.79579e-06 276.919 0.0106986 276.812C0.0106986 276.753 0.0160499 276.7 0.0160499 276.641C0.0204692 276.62 0.0222673 276.598 0.0214013 276.577C0.042802 276.336 0.0749034 276.106 0.117705 275.871C1.86187 266.299 23.3108 257.503 58.2957 250.457C86.9086 244.695 124.579 240.099 167.937 237.21C200.841 235.017 237.019 233.802 275 233.802C305.56 233.802 334.954 234.589 362.411 236.033H362.422C368.168 236.338 373.829 236.672 379.404 237.034C417.567 239.505 451.433 243.288 478.719 248.023C495.503 250.939 509.804 254.218 521.088 257.771H521.093C538.46 263.244 548.7 269.381 549.882 275.871C549.925 276.106 549.957 276.336 549.979 276.577C549.978 276.598 549.979 276.62 549.984 276.641C549.984 276.7 549.989 276.753 549.989 276.812C550 276.919 550 277.032 550 277.139Z" fill="#3F3D56"/>
<path opacity="0.1" d="M268.045 318.87C316.8 318.87 356.323 313.121 356.323 306.03C356.323 298.938 316.8 293.189 268.045 293.189C219.29 293.189 179.767 298.938 179.767 306.03C179.767 313.121 219.29 318.87 268.045 318.87Z" fill="black"/>
<path opacity="0.1" d="M521.087 257.771C518 258.654 514.523 259.472 510.708 260.221C495 263.314 473.567 265.213 449.967 265.213C423.602 265.213 399.97 262.843 383.957 259.093C370.667 255.979 362.62 251.929 362.62 247.483C362.62 243.577 368.848 239.96 379.404 237.034C417.567 239.505 451.433 243.288 478.719 248.023C495.503 250.939 509.804 254.218 521.087 257.771Z" fill="black"/>
<path opacity="0.1" d="M284.63 251.859C284.63 259.954 233.846 266.518 171.206 266.518C108.566 266.518 57.782 259.954 57.782 251.859C57.7955 251.348 57.9759 250.856 58.2956 250.457C86.9084 244.695 124.579 240.099 167.937 237.21C169.023 237.205 170.113 237.203 171.206 237.205C233.846 237.205 284.63 243.764 284.63 251.859Z" fill="black"/>
<path d="M245.123 179.218H222.821V251.223H245.123V179.218Z" fill="#8957E5"/>
<path d="M171.844 145.446H149.541V251.223H171.844V145.446Z" fill="#8957E5"/>
<path d="M99.2009 145.446H76.8984V251.223H99.2009V145.446Z" fill="#8957E5"/>
<path d="M135.522 145.446H113.22V217.451H135.522V145.446Z" fill="#8957E5"/>
<path d="M208.165 145.446H185.862V166.474H208.165V145.446Z" fill="#8957E5"/>
<path d="M208.165 179.218H185.862V251.223H208.165V179.218Z" fill="#8A8B8C"/>
<path d="M281.444 145.446H222.821V166.474H281.444V145.446Z" fill="#8957E5"/>
<path d="M436.074 139.121C451.321 139.121 464.3 144.442 475.009 155.085C480.053 160.089 484.027 166.067 486.69 172.654C491.996 186.131 492.014 201.115 486.741 214.605C484.119 221.116 480.156 227.003 475.11 231.883C469.922 237.051 463.77 241.152 457.004 243.953C450.374 246.72 443.261 248.142 436.077 248.139C428.975 248.16 421.94 246.753 415.393 244.001C402.054 238.323 391.432 227.701 385.753 214.363C380.285 201.062 380.303 186.137 385.801 172.849C388.586 166.157 392.672 160.086 397.822 154.986C408.204 144.411 420.955 139.123 436.074 139.121ZM436.272 148.953C423.813 148.953 413.332 153.301 404.83 161.996C400.637 166.209 397.284 171.18 394.95 176.646C392.669 182.001 391.493 187.761 391.493 193.582C391.493 199.402 392.669 205.163 394.95 210.518C399.651 221.438 408.387 230.122 419.334 234.76C424.714 236.984 430.48 238.125 436.302 238.117C442.124 238.109 447.886 236.952 453.26 234.712C458.787 232.409 463.825 229.073 468.102 224.882C476.602 216.576 480.852 206.16 480.85 193.634C480.882 187.762 479.757 181.94 477.541 176.502C475.327 171.104 472.052 166.204 467.909 162.095C459.144 153.334 448.598 148.953 436.272 148.953ZM435.589 184.58L428.286 188.377C427.697 186.977 426.696 185.789 425.416 184.97C424.463 184.377 423.372 184.042 422.251 183.998C417.386 183.998 414.952 187.21 414.95 193.634C414.95 196.554 415.566 198.889 416.798 200.64C418.031 202.393 419.849 203.27 422.251 203.27C425.431 203.27 427.67 201.713 428.969 198.598L435.684 202.005C434.313 204.607 432.253 206.782 429.73 208.293C427.206 209.804 424.316 210.592 421.375 210.571C416.508 210.571 412.582 209.078 409.596 206.093C406.611 203.108 405.119 198.956 405.119 193.636C405.119 188.443 406.628 184.323 409.645 181.274C412.662 178.225 416.475 176.699 421.084 176.698C427.835 176.695 432.669 179.322 435.589 184.58ZM467.029 184.58L459.825 188.377C459.236 186.976 458.234 185.788 456.953 184.97C455.969 184.367 454.846 184.032 453.693 183.998C448.826 183.998 446.392 187.21 446.39 193.634C446.39 196.554 447.007 198.889 448.24 200.64C449.472 202.393 451.289 203.27 453.693 203.27C456.869 203.27 459.107 201.713 460.406 198.598L467.22 202.005C465.798 204.593 463.717 206.759 461.188 208.283C458.695 209.798 455.831 210.59 452.914 210.571C447.981 210.571 444.04 209.078 441.091 206.093C438.133 203.108 436.656 198.956 436.658 193.636C436.658 188.443 438.168 184.323 441.186 181.274C444.201 178.225 448.013 176.699 452.621 176.698C459.37 176.695 464.173 179.322 467.029 184.58Z" fill="#8957E5"/>
<path opacity="0.1" d="M403.093 273.039C403.093 299.115 366.747 291.05 322.244 291.05C277.742 291.05 241.936 299.115 241.936 273.039C241.936 246.964 278.277 241.293 322.779 241.293C367.282 241.293 403.093 246.964 403.093 273.039Z" fill="black"/>
<path d="M403.093 266.619C403.093 292.695 366.747 284.629 322.244 284.629C277.742 284.629 241.936 292.695 241.936 266.619C241.936 240.544 278.277 234.873 322.779 234.873C367.282 234.873 403.093 240.544 403.093 266.619Z" fill="#3F3D56"/>
<path d="M395.669 219.808L397.506 227.386C397.527 227.471 397.523 227.559 397.497 227.642L389.164 253.683C389.131 253.786 389.063 253.875 388.973 253.934C388.882 253.994 388.774 254.021 388.667 254.01C388.559 253.999 388.458 253.952 388.381 253.876C388.304 253.8 388.255 253.7 388.243 253.592L387.09 243.448C387.082 243.38 387.089 243.312 387.11 243.248L394.759 219.773C394.791 219.675 394.854 219.591 394.939 219.532C395.023 219.473 395.125 219.443 395.227 219.447C395.33 219.451 395.429 219.488 395.509 219.554C395.589 219.619 395.645 219.708 395.669 219.808Z" fill="#2F2E41"/>
<path d="M394.993 220.448L396.69 226.95L389.34 250.695L387.644 243.346L394.993 220.448Z" fill="#F2F2F2"/>
<path d="M357.962 255.783C358.245 256.631 387.361 255.501 387.644 255.218C387.89 254.864 388.099 254.485 388.266 254.087C388.531 253.522 388.774 252.957 388.774 252.957L387.644 243.803L358.81 242.78C358.81 242.78 358.089 250.537 357.942 254.087C357.892 254.652 357.899 255.22 357.962 255.783Z" fill="#2F2E41"/>
<path opacity="0.1" d="M383.969 245.042L384.534 252.957H371.813V245.042H383.969Z" fill="black"/>
<path opacity="0.1" d="M367.573 247.586L367.649 247.571L367.291 250.978H360.224V247.586H367.573Z" fill="black"/>
<path opacity="0.1" d="M357.962 255.783C358.245 256.632 387.361 255.501 387.644 255.218C387.89 254.864 388.099 254.485 388.265 254.087H357.942C357.892 254.652 357.899 255.22 357.962 255.783Z" fill="black"/>
<path d="M313.016 226.102H320.931L340.436 218.47C340.436 218.47 354.287 212.816 353.157 223.558C352.026 234.3 350.047 248.716 350.047 248.716C350.047 248.716 343.828 245.89 340.436 246.738C337.044 247.586 339.305 229.494 339.305 229.494C339.305 229.494 311.603 242.78 309.058 241.084C306.514 239.388 305.949 227.515 305.949 227.515L313.016 226.102Z" fill="#2F2E41"/>
<path opacity="0.1" d="M313.016 226.102H320.931L340.436 218.47C340.436 218.47 354.287 212.816 353.157 223.558C352.026 234.3 350.047 248.716 350.047 248.716C350.047 248.716 343.828 245.89 340.436 246.738C337.044 247.586 339.305 229.494 339.305 229.494C339.305 229.494 311.603 242.78 309.058 241.084C306.514 239.388 305.949 227.515 305.949 227.515L313.016 226.102Z" fill="black"/>
<path d="M325.486 201.315L335.065 215.077L357.397 233.734C357.397 233.734 378.033 238.54 375.206 241.932C372.379 245.324 355.135 238.54 355.135 238.54C355.135 238.54 329.411 219.883 328.563 218.47C327.715 217.056 318.387 203.77 318.387 203.77L325.486 201.315Z" fill="#A0616A"/>
<path opacity="0.1" d="M325.486 201.315L335.065 215.077L357.397 233.734C357.397 233.734 378.033 238.54 375.206 241.932C372.379 245.324 355.135 238.54 355.135 238.54C355.135 238.54 329.411 219.883 328.563 218.47C327.715 217.056 318.387 203.77 318.387 203.77L325.486 201.315Z" fill="black"/>
<path d="M324.041 186.244C331.066 186.244 336.761 180.549 336.761 173.523C336.761 166.498 331.066 160.803 324.041 160.803C317.015 160.803 311.32 166.498 311.32 173.523C311.32 180.549 317.015 186.244 324.041 186.244Z" fill="#A0616A"/>
<path d="M323.192 184.831C323.192 184.831 318.952 192.18 318.104 196.138C317.256 200.095 305.384 188.223 305.384 188.223L303.829 184.124C303.829 184.124 314.995 178.894 314.147 174.654C313.299 170.414 323.192 184.831 323.192 184.831Z" fill="#A0616A"/>
<path d="M319.8 190.202L326.019 202.357C326.019 202.357 324.606 208.293 322.344 208.858C320.083 209.424 310.472 201.509 310.472 201.509L319.8 190.202Z" fill="#D0CDE1"/>
<path d="M325.454 206.88L337.044 222.145L364.746 242.78C364.746 242.78 384.817 247.02 380.294 250.13C375.771 253.239 362.768 247.303 362.768 247.303C362.768 247.303 334.782 232.321 328.846 226.102C322.91 219.883 311.885 209.424 311.885 209.424L325.454 206.88Z" fill="#A0616A"/>
<path d="M309.907 230.625L313.299 235.996L333.544 229.627C335.737 228.918 338.057 228.694 340.346 228.97C342.634 229.246 344.835 230.015 346.796 231.226C350.33 233.452 352.591 236.985 347.503 242.215C337.327 252.674 330.542 247.02 330.542 247.02C330.542 247.02 296.338 263.133 290.684 255.218C285.031 247.303 284.748 243.345 284.748 243.345C284.748 243.345 306.514 229.777 309.907 230.625Z" fill="#2F2E41"/>
<path d="M352.309 249.282C352.309 249.282 361.354 255.218 350.613 258.045C339.871 260.872 331.956 256.914 331.956 256.914C331.956 256.914 322.627 256.914 322.627 252.109C322.627 247.303 325.737 246.738 325.737 246.738L335.348 248.151C335.348 248.151 346.938 245.042 352.309 249.282Z" fill="#D0CDE1"/>
<path d="M334.476 170.323C335.312 170.773 336.21 171.095 337.142 171.278C337.609 171.362 338.092 171.307 338.529 171.12C338.966 170.933 339.338 170.621 339.6 170.225C339.808 169.755 339.904 169.243 339.879 168.729C339.913 167.177 339.801 165.499 338.818 164.298C338.192 163.533 337.278 163.051 336.63 162.305C336.194 161.747 335.823 161.14 335.524 160.498C334.263 158.131 332.397 155.856 329.804 155.174C328.708 154.939 327.585 154.853 326.466 154.919L319.935 155.011C318.877 154.977 317.82 155.091 316.793 155.349C314.691 155.985 313.161 157.752 311.759 159.443C310.671 160.675 309.704 162.01 308.872 163.427C307.744 165.532 307.173 167.89 307.215 170.278C307.206 170.89 307.285 171.501 307.45 172.091C307.642 172.632 307.88 173.155 308.162 173.656C309.387 176.061 310.114 179.066 308.735 181.386C311.131 180.407 313.501 179.124 315.082 177.075C315.789 176.158 316.343 175.085 317.285 174.412C318.228 173.739 319.763 173.681 320.367 174.668C320.575 175.068 320.682 175.512 320.679 175.962C320.66 176.706 320.781 177.447 321.036 178.146C321.173 178.492 321.424 178.78 321.747 178.965C322.07 179.149 322.446 179.218 322.814 179.16C324.045 178.813 323.927 176.924 324.875 176.066C325.595 175.414 326.705 175.539 327.63 175.243C328.16 175.042 328.643 174.732 329.047 174.334C329.451 173.936 329.768 173.459 329.977 172.932C330.327 172.146 330.322 170.091 330.985 169.665C331.816 169.132 333.706 169.98 334.476 170.323Z" fill="#2F2E41"/>
<path d="M302.819 182.783C303.391 182.63 303.994 182.632 304.565 182.788C306.38 183.275 310.448 184.564 311.32 186.527C312.451 189.071 316.408 193.028 316.408 193.028C316.408 193.028 321.779 198.399 320.648 202.074C319.518 205.749 315.277 209.989 315.277 209.989C315.277 209.989 316.408 227.515 310.755 232.038C305.101 236.561 302.839 233.452 302.839 237.692C302.839 241.932 285.313 255.218 281.921 247.02C281.921 247.02 283.617 231.756 283.052 226.385C282.495 221.091 283.31 188.065 302.819 182.783Z" fill="#D0CDE1"/>
<path d="M311.885 189.919C311.885 189.919 329.129 202.639 326.019 208.01C326.019 208.01 315.56 213.099 313.299 212.816C311.037 212.533 302.274 202.639 300.013 201.791C297.751 200.943 296.621 185.679 311.885 189.919Z" fill="#D0CDE1"/>
<path d="M264.198 201.318C261.516 202.224 259.087 204.342 258.538 207.119C258.283 208.406 258.439 209.744 258.225 211.039C257.728 214.041 255.371 216.334 253.198 218.464C251.024 220.594 248.779 223.068 248.621 226.107C248.447 229.435 250.86 232.553 250.443 235.859C249.957 239.7 245.901 242.188 244.898 245.928C244.228 248.425 245.049 251.114 246.399 253.319C248.971 257.52 253.369 260.372 258.052 261.901C262.735 263.43 267.722 263.752 272.648 263.804C278.646 263.866 285.159 263.351 289.665 259.393C292.239 257.111 293.856 253.941 294.191 250.518C294.619 245.932 292.705 241.194 294.025 236.782C294.856 234.005 296.94 231.469 296.629 228.588C296.325 225.77 293.864 223.773 292.176 221.497C290.6 219.372 289.643 216.862 288.706 214.388L285.498 205.922C284.868 204.257 284.175 202.507 282.77 201.415C280.14 199.37 275.91 199.771 272.834 200.193C269.981 200.585 266.942 200.391 264.198 201.318Z" fill="#2F2E41"/>
<path d="M265.203 225.979C265.203 225.979 266.625 230.6 255.961 235.932C245.297 241.264 257.027 246.951 257.027 246.951L269.468 249.795C269.468 249.795 282.264 248.017 283.686 245.885C285.108 243.752 287.596 236.643 286.885 235.577C286.353 234.817 285.759 234.104 285.108 233.444C285.108 233.444 276.577 232.022 276.933 228.112C277.288 224.202 265.203 225.979 265.203 225.979Z" fill="#FFB9B9"/>
<path opacity="0.1" d="M265.203 225.979C265.203 225.979 266.625 230.6 255.961 235.932C245.297 241.264 257.027 246.951 257.027 246.951L269.468 249.795C269.468 249.795 282.264 248.017 283.686 245.885C285.108 243.752 287.596 236.643 286.885 235.577C286.353 234.817 285.759 234.104 285.108 233.444C285.108 233.444 276.577 232.022 276.933 228.112C277.288 224.202 265.203 225.979 265.203 225.979Z" fill="black"/>
<path d="M272.134 233.266C278.416 233.266 283.509 228.174 283.509 221.892C283.509 215.61 278.416 210.517 272.134 210.517C265.852 210.517 260.76 215.61 260.76 221.892C260.76 228.174 265.852 233.266 272.134 233.266Z" fill="#FFB9B9"/>
<path d="M270.89 245.885C270.89 245.885 257.192 244.883 256.932 235.431C256.932 235.431 252.051 234.866 250.629 236.287C249.208 237.709 244.587 238.776 244.587 242.33C244.587 245.885 252.407 256.548 252.407 256.548C252.407 256.548 256.672 270.766 254.895 273.254C253.117 275.743 252.762 282.141 252.762 282.141C252.762 282.141 270.535 280.719 273.378 282.141C276.222 283.562 287.596 283.562 288.307 282.141C289.018 280.719 287.596 262.946 287.596 262.946C287.596 262.946 290.795 258.681 290.084 253.705L298.615 243.752C298.615 243.752 295.416 234.155 290.44 234.155C290.44 234.155 283.686 232.378 283.509 233.266C283.331 234.155 286.885 244.107 270.89 245.885Z" fill="#FF6584"/>
<path d="M238.899 277.164C238.899 277.164 242.098 282.141 250.274 283.207C258.449 284.273 259.871 281.43 259.16 280.719C258.449 280.008 249.918 276.809 249.918 276.809L244.942 272.899L238.899 277.164Z" fill="#FFB9B9"/>
<path d="M297.193 272.899L287.952 278.231C287.952 278.231 275.866 277.52 280.487 281.074C285.108 284.629 293.639 283.207 293.639 283.207L301.814 279.297L297.193 272.899Z" fill="#FFB9B9"/>
<path d="M250.985 282.141C250.985 282.141 242.454 303.112 252.762 306.311C263.07 309.51 291.506 308.8 297.904 304.534C304.302 300.269 306.08 294.582 305.013 292.804C303.947 291.027 296.838 286.051 291.862 285.695C286.885 285.34 250.985 282.141 250.985 282.141Z" fill="#2F2E41"/>
<path opacity="0.05" d="M250.985 282.141C250.985 282.141 242.454 303.112 252.762 306.311C263.07 309.51 291.506 308.8 297.904 304.534C304.302 300.269 306.08 294.582 305.013 292.804C303.947 291.027 296.838 286.051 291.862 285.695C286.885 285.34 250.985 282.141 250.985 282.141Z" fill="black"/>
<path d="M291.253 283.444C291.253 283.444 321.364 272.544 321.009 285.695C320.653 298.847 301.814 302.401 301.814 302.401L296.127 303.112L264.847 304.179C264.847 304.179 265.914 298.491 263.426 297.781C263.426 297.781 271.601 295.648 271.956 295.292C272.312 294.937 292.573 287.828 293.994 287.473C295.416 287.117 299.682 284.273 302.881 284.629C302.881 284.629 306.435 281.785 310.345 282.496L299.326 283.207L291.253 283.444Z" fill="#2F2E41"/>
<path opacity="0.1" d="M291.253 283.444C291.253 283.444 321.364 272.544 321.009 285.695C320.653 298.847 301.814 302.401 301.814 302.401L296.127 303.112L264.847 304.179C264.847 304.179 265.914 298.491 263.426 297.781C263.426 297.781 271.601 295.648 271.956 295.292C272.312 294.937 292.573 287.828 293.994 287.473C295.416 287.117 299.682 284.273 302.881 284.629C302.881 284.629 306.435 281.785 310.345 282.496L299.326 283.207L291.253 283.444Z" fill="black"/>
<path d="M285.933 285.209L289.729 293.871L312.833 285.695L314.611 281.075L308.568 280.008L296.42 282.141L291.151 283.563L285.933 285.209Z" fill="#2F2E41"/>
<path opacity="0.1" d="M285.933 285.209L289.729 293.871L312.833 285.695L314.611 281.075L308.568 280.008L296.42 282.141L291.151 283.563L285.933 285.209Z" fill="black"/>
<path d="M236.767 295.648C236.767 295.648 243.52 304.179 251.34 306.311C259.16 308.444 263.425 305.6 263.425 305.6L260.937 295.648L259.871 289.25L255.25 286.051L246.008 281.785L234.989 278.231C234.989 278.231 230.369 277.52 230.369 278.231C230.369 278.942 234.634 289.605 234.634 289.605L236.767 295.648Z" fill="#2F2E41"/>
<path d="M244.942 300.269C244.942 300.269 246.364 310.577 248.141 311.288C249.918 311.999 255.25 310.577 256.672 309.866C258.094 309.155 262.927 305.875 262.927 305.875C262.927 305.875 246.008 299.558 244.942 300.269Z" fill="#F2F2F2"/>
<path d="M277.288 301.335L284.042 302.401L283.331 310.577L273.911 308.289L277.288 301.335Z" fill="#FFB9B9"/>
<path d="M281.52 303.61C281.52 303.61 278.354 307.378 281.553 309.51L283.686 311.288C283.686 311.288 290.795 312.709 291.506 313.42C292.217 314.131 295.061 312.354 295.061 312.354C295.061 312.354 295.416 301.691 295.061 300.98C294.705 300.269 290.44 299.558 290.084 300.269C289.729 300.98 285.463 302.046 282.975 301.335L281.52 303.61Z" fill="#F2F2F2"/>
<path d="M253.117 284.629C253.117 284.629 228.236 270.055 224.326 275.387C220.416 280.719 216.151 288.183 227.525 293.871C238.899 299.558 274.444 311.288 274.444 311.288C274.444 311.288 279.776 303.112 279.776 300.98C279.776 300.98 260.937 292.449 257.738 291.738C254.539 291.027 241.743 282.852 239.966 282.141C238.188 281.43 235.7 279.297 235.7 279.297L253.117 284.629Z" fill="#2F2E41"/>
<path d="M246.008 240.553L244.587 241.619C244.587 241.619 241.387 249.795 241.032 254.416C240.677 259.036 236.411 273.254 236.767 275.032C237.122 276.809 237.478 278.231 239.61 280.008C239.61 280.008 242.454 273.61 247.43 274.676L253.473 252.638L246.008 240.553Z" fill="#FF6584"/>
<path d="M295.772 240.553L298.615 243.752C298.615 243.752 300.392 248.017 300.392 249.084C300.392 250.15 303.947 265.79 304.302 266.501C304.658 267.212 306.08 276.098 304.302 278.231C302.525 280.363 299.326 281.785 299.326 281.785C299.326 281.785 301.459 274.321 294.705 273.965L295.416 271.122L289.018 249.795L295.772 240.553Z" fill="#FF6584"/>
<path d="M246.719 265.025V283.748C246.719 284.931 247.184 286.065 248.014 286.908C248.844 287.75 249.972 288.232 251.154 288.249L290.309 288.829C291.485 288.847 292.62 288.404 293.473 287.595C294.326 286.786 294.829 285.676 294.874 284.501L295.594 265.776C295.617 265.176 295.52 264.578 295.309 264.016C295.097 263.455 294.775 262.941 294.362 262.506C293.949 262.07 293.453 261.722 292.904 261.481C292.354 261.24 291.762 261.111 291.161 261.102L251.286 260.524C250.689 260.516 250.097 260.626 249.543 260.848C248.99 261.07 248.486 261.401 248.061 261.819C247.636 262.238 247.298 262.737 247.068 263.288C246.838 263.838 246.719 264.429 246.719 265.025Z" fill="#3F3D56"/>
<path d="M272.801 221.527C279.563 221.527 285.045 218.575 285.045 214.934C285.045 211.293 279.563 208.342 272.801 208.342C266.039 208.342 260.558 211.293 260.558 214.934C260.558 218.575 266.039 221.527 272.801 221.527Z" fill="#2F2E41"/>
<path d="M270.712 277.698C272.283 277.698 273.556 276.424 273.556 274.854C273.556 273.283 272.283 272.01 270.712 272.01C269.142 272.01 267.869 273.283 267.869 274.854C267.869 276.424 269.142 277.698 270.712 277.698Z" fill="#F2F2F2"/>
</g>
<defs>
<clipPath id="clip0_54_2214">
<rect width="550" height="320.475" fill="white"/>
</clipPath>
</defs>
</svg>
