<svg width="550" height="237" viewBox="0 0 550 237" fill="none" xmlns="http://www.w3.org/2000/svg">
<g clip-path="url(#clip0_54_2163)">
<path d="M120.721 132.349C120.726 131.626 120.582 130.91 120.298 130.245C120.014 129.58 119.596 128.981 119.069 128.485C118.543 127.989 117.921 127.607 117.24 127.362C116.56 127.117 115.836 127.016 115.114 127.064C114.393 127.111 113.689 127.307 113.047 127.639C112.404 127.971 111.837 128.432 111.381 128.993C110.924 129.554 110.589 130.202 110.394 130.899C110.2 131.595 110.151 132.325 110.251 133.041L95.138 152.832C94.493 154.122 94.243 155.574 94.4191 157.005C94.5953 158.436 95.1899 159.784 96.1283 160.878L97.3139 162.261L102.754 161.173L108.919 155.734L108.193 149.568L115.809 137.601L115.799 137.592C117.132 137.507 118.383 136.918 119.297 135.944C120.212 134.97 120.721 133.685 120.721 132.349Z" fill="#FFB9B9"/>
<path d="M16.2068 229.108L13.7397 219.946L47.9066 206.071L51.5476 219.593L16.2068 229.108Z" fill="#FFB8B8"/>
<path d="M7.95427 233.836L0 204.293L0.373673 204.192C3.42339 203.371 6.67433 203.795 9.41143 205.371C12.1485 206.947 14.1476 209.545 14.969 212.595L14.9692 212.596L19.8273 230.64L7.95427 233.836Z" fill="#2F2E41"/>
<path d="M63.2701 227.644L55.5964 222.064L73.4702 189.808L84.7962 198.045L63.2701 227.644Z" fill="#FFB8B8"/>
<path d="M59.818 236.506L35.0737 218.512L35.3013 218.199C37.159 215.644 39.9551 213.933 43.0747 213.44C46.1943 212.947 49.3819 213.714 51.9363 215.571L51.937 215.572L67.0499 226.562L59.818 236.506Z" fill="#2F2E41"/>
<path d="M128.502 182.57L109.191 163.811C107.506 162.173 105.286 161.2 102.94 161.069C100.594 160.938 98.2794 161.658 96.4222 163.097L59.9602 203.604L63.2242 208.681L98.0389 185.109L121.612 215.934L144.096 204.692L128.502 182.57Z" fill="#2F2E41"/>
<path d="M120.161 186.559L106.017 185.471L95.7747 182.988C95.1961 182.086 94.3557 181.381 93.3658 180.97C92.3759 180.558 91.2839 180.458 90.2359 180.684C89.1879 180.91 88.2339 181.451 87.5017 182.234C86.7696 183.017 86.2941 184.006 86.1391 185.066C85.984 186.127 86.1567 187.21 86.6341 188.17C87.1114 189.13 87.8706 189.921 88.8101 190.438C89.7495 190.954 90.8244 191.172 91.8907 191.06C92.957 190.949 93.9639 190.515 94.7766 189.816L94.7751 189.823L100.94 192.362L127.414 201.428L130.678 198.89L120.161 186.559Z" fill="#FFB9B9"/>
<path d="M154.251 225.726L146.272 230.803H136.843L92.9619 214.484L28.772 226.089L26.9587 212.308L85.709 186.559L137.206 203.604L154.251 225.726Z" fill="#2F2E41"/>
<path d="M137.206 137.601C145.017 137.601 151.349 131.269 151.349 123.457C151.349 115.646 145.017 109.314 137.206 109.314C129.395 109.314 123.062 115.646 123.062 123.457C123.062 131.269 129.395 137.601 137.206 137.601Z" fill="#FFB9B9"/>
<path d="M173.801 179.926C173.801 188.462 172.456 196.945 169.816 205.062L168.757 208.319L163.68 231.529L158.24 232.979L154.251 227.902L146.272 222.1L140.47 212.671L135.494 204.38L133.942 201.791L128.502 174.592L107.831 162.987L100.94 161.899L102.391 157.91L108.556 149.569L114.721 148.843L116.535 147.393L117.985 148.118L125.982 151.198L151.908 140.245L155.701 140.865L168.757 151.744C172.094 160.765 173.802 170.308 173.801 179.926Z" fill="#CCCCCC"/>
<path opacity="0.1" d="M169.845 176.768L156.064 185.834L135.494 204.38L133.942 201.791L129.59 180.032H130.678L141.921 159.361L169.845 176.768Z" fill="black"/>
<path d="M141.921 157.184L130.678 177.855L124.15 185.109L118.348 186.559L133.942 203.604L156.064 183.658L169.844 174.591L141.921 157.184Z" fill="#CCCCCC"/>
<path d="M126.205 112.941L124.673 113.531C124.44 113.373 124.241 113.171 124.086 112.937C123.931 112.702 123.825 112.44 123.771 112.164C123.718 111.888 123.72 111.604 123.777 111.329C123.833 111.054 123.943 110.792 124.101 110.56C124.109 110.548 124.117 110.536 124.126 110.523L121.294 110.391C123.112 107.97 125.423 105.962 128.075 104.501C130.727 103.04 133.658 102.159 136.676 101.916C139.694 101.672 142.729 102.073 145.581 103.09C148.432 104.108 151.035 105.719 153.217 107.818C153.346 107.374 154.752 108.238 155.326 109.114C155.518 108.391 156.836 111.884 157.302 114.353C157.518 113.531 158.348 114.858 157.621 116.132C158.081 116.064 158.289 117.243 157.933 117.899C158.437 117.663 158.352 119.069 157.806 120.009C158.525 119.945 157.744 134.754 146.954 133.675C146.203 130.224 146.415 130.438 145.53 126C145.119 125.563 144.668 125.165 144.218 124.768L141.783 122.619C138.952 120.12 136.377 117.036 132.606 116.102C130.014 115.46 128.376 115.315 129.788 112.395C128.512 112.928 127.32 113.719 126.033 114.214C126.05 113.806 126.23 113.349 126.205 112.941Z" fill="#2F2E41"/>
<path d="M144.278 127.628C145.68 127.628 146.816 126.491 146.816 125.089C146.816 123.687 145.68 122.551 144.278 122.551C142.876 122.551 141.739 123.687 141.739 125.089C141.739 126.491 142.876 127.628 144.278 127.628Z" fill="#FFB9B9"/>
<path d="M25.8941 65.1332L25.1194 76.7659L36.752 77.5406L37.5267 65.9079L25.8941 65.1332Z" fill="#E6E6E6"/>
<path d="M18.3887 71.3101L32.514 72.2508L31.5733 86.3761L17.448 85.4354L18.3887 71.3101ZM31.859 72.824L18.9619 71.9651L18.103 84.8621L31.0001 85.721L31.859 72.824Z" fill="#CCCCCC"/>
<path d="M91.6321 30.639L80.2339 33.0881L82.683 44.4864L94.0813 42.0372L91.6321 30.639Z" fill="#E6E6E6"/>
<path d="M83.6317 25.1182L86.6057 38.9589L72.765 41.9328L69.791 28.0921L83.6317 25.1182ZM85.8746 38.4864L83.1593 25.8492L70.5221 28.5646L73.2374 41.2018L85.8746 38.4864Z" fill="#CCCCCC"/>
<path d="M79.6552 85.3774L71.1465 93.3473L79.1164 101.856L87.6251 93.8861L79.6552 85.3774Z" fill="#E6E6E6"/>
<path d="M88.2368 84.1852L77.9048 93.8629L68.2271 83.5309L78.5591 73.8531L88.2368 84.1852ZM77.9332 92.9929L87.3668 84.1567L78.5306 74.7232L69.097 83.5593L77.9332 92.9929Z" fill="#CCCCCC"/>
<path d="M519.677 0.921997H174.737C173.491 0.921996 172.256 1.16757 171.104 1.6447C169.952 2.12182 168.906 2.82115 168.024 3.70277C167.142 4.58439 166.443 5.63102 165.966 6.78291C165.489 7.9348 165.243 9.16938 165.243 10.4162V202.61C165.243 203.857 165.489 205.092 165.966 206.243C166.443 207.395 167.142 208.442 168.024 209.324C168.906 210.205 169.952 210.905 171.104 211.382C172.256 211.859 173.491 212.104 174.737 212.104H519.677C522.195 212.104 524.61 211.104 526.39 209.324C528.171 207.543 529.171 205.128 529.171 202.61V10.4162C529.171 7.89816 528.171 5.48328 526.39 3.70278C524.61 1.92228 522.195 0.921999 519.677 0.921997Z" fill="#3F3D56"/>
<path d="M516.442 17.7009H177.972V208.633H516.442V17.7009Z" fill="white"/>
<path d="M346.918 12.4936C348.835 12.4936 350.389 10.9394 350.389 9.02214C350.389 7.1049 348.835 5.55066 346.918 5.55066C345.001 5.55066 343.446 7.1049 343.446 9.02214C343.446 10.9394 345.001 12.4936 346.918 12.4936Z" fill="white"/>
<path d="M419.645 208.633H177.972V17.7012L419.645 208.633Z" fill="#F2F2F2"/>
<path d="M230.932 194.345C248.901 194.345 263.467 179.779 263.467 161.811C263.467 143.842 248.901 129.276 230.932 129.276C212.964 129.276 198.398 143.842 198.398 161.811C198.398 179.779 212.964 194.345 230.932 194.345Z" fill="#8957E5"/>
<path d="M238.175 186.264C230.171 186.264 222.346 183.89 215.691 179.443C209.036 174.996 203.849 168.676 200.785 161.281C197.722 153.886 196.921 145.748 198.482 137.898C200.044 130.048 203.898 122.837 209.558 117.177C215.218 111.517 222.429 107.662 230.28 106.101C238.13 104.539 246.267 105.341 253.662 108.404C261.057 111.467 267.378 116.654 271.825 123.309C276.272 129.965 278.645 137.789 278.645 145.793C278.645 151.108 277.598 156.371 275.565 161.281C273.531 166.191 270.55 170.652 266.792 174.41C263.034 178.168 258.572 181.149 253.662 183.183C248.752 185.217 243.49 186.264 238.175 186.264ZM238.175 105.852C230.275 105.852 222.553 108.195 215.985 112.584C209.417 116.972 204.297 123.21 201.274 130.509C198.251 137.807 197.46 145.838 199.001 153.585C200.542 161.333 204.346 168.45 209.932 174.036C215.518 179.622 222.635 183.426 230.383 184.967C238.131 186.508 246.161 185.717 253.46 182.694C260.758 179.671 266.996 174.552 271.385 167.984C275.774 161.415 278.116 153.693 278.116 145.793C278.116 140.548 277.083 135.354 275.076 130.509C273.069 125.663 270.127 121.26 266.418 117.551C262.709 113.842 258.306 110.9 253.46 108.893C248.614 106.885 243.42 105.852 238.175 105.852L238.175 105.852Z" fill="#3F3D56"/>
<path d="M438.087 116.896H406.471V123.502H438.087V116.896Z" fill="#3F3D56"/>
<path d="M468 81.1045H376.558V83.9359H468V81.1045Z" fill="#3F3D56"/>
<path d="M468 92.2284H376.558V95.0598H468V92.2284Z" fill="#3F3D56"/>
<path d="M468 103.352H376.558V106.184H468V103.352Z" fill="#3F3D56"/>
<path d="M492.495 29.1273H479.282V42.3403H492.495V29.1273Z" fill="#8957E5"/>
<path d="M498.63 48.4749H482.586V32.4305H498.63V48.4749ZM483.283 47.7774H497.932V33.1281H483.283L483.283 47.7774Z" fill="#CCCCCC"/>
<path d="M538.675 205.161H505.642V202.781C505.642 202.719 505.63 202.658 505.606 202.601C505.582 202.544 505.548 202.491 505.504 202.448C505.46 202.404 505.408 202.369 505.351 202.345C505.294 202.322 505.232 202.309 505.17 202.309H493.845C493.783 202.309 493.721 202.322 493.664 202.345C493.607 202.369 493.555 202.404 493.511 202.448C493.467 202.491 493.432 202.543 493.409 202.601C493.385 202.658 493.373 202.719 493.373 202.781V205.161H486.294V202.781C486.294 202.719 486.282 202.658 486.259 202.601C486.235 202.544 486.2 202.491 486.156 202.448C486.112 202.404 486.06 202.369 486.003 202.345C485.946 202.322 485.885 202.309 485.823 202.309H474.497C474.435 202.309 474.374 202.322 474.317 202.345C474.259 202.369 474.207 202.404 474.163 202.448C474.12 202.491 474.085 202.544 474.061 202.601C474.037 202.658 474.025 202.719 474.025 202.781V205.161H466.947V202.781C466.947 202.719 466.935 202.658 466.911 202.601C466.887 202.544 466.853 202.491 466.809 202.448C466.765 202.404 466.713 202.369 466.656 202.345C466.598 202.322 466.537 202.309 466.475 202.309H455.15C455.088 202.309 455.026 202.322 454.969 202.345C454.912 202.369 454.86 202.404 454.816 202.448C454.772 202.491 454.737 202.544 454.714 202.601C454.69 202.658 454.678 202.719 454.678 202.781V205.161H447.599V202.781C447.599 202.719 447.587 202.658 447.563 202.601C447.54 202.544 447.505 202.491 447.461 202.448C447.417 202.404 447.365 202.369 447.308 202.345C447.251 202.322 447.189 202.309 447.127 202.309H435.802C435.74 202.309 435.679 202.322 435.621 202.345C435.564 202.369 435.512 202.404 435.468 202.448C435.424 202.491 435.39 202.543 435.366 202.601C435.342 202.658 435.33 202.719 435.33 202.781V205.161H428.252V202.781C428.252 202.719 428.239 202.658 428.216 202.601C428.192 202.544 428.157 202.491 428.113 202.448C428.07 202.404 428.018 202.369 427.96 202.345C427.903 202.322 427.842 202.309 427.78 202.309H416.454C416.392 202.309 416.331 202.322 416.274 202.345C416.216 202.369 416.164 202.404 416.121 202.448C416.077 202.491 416.042 202.544 416.018 202.601C415.995 202.658 415.982 202.719 415.982 202.781V205.161H408.904V202.781C408.904 202.719 408.892 202.658 408.868 202.601C408.844 202.544 408.81 202.491 408.766 202.448C408.722 202.404 408.67 202.369 408.613 202.345C408.555 202.322 408.494 202.309 408.432 202.309H397.107C397.045 202.309 396.983 202.322 396.926 202.345C396.869 202.369 396.817 202.404 396.773 202.448C396.729 202.491 396.694 202.544 396.671 202.601C396.647 202.658 396.635 202.719 396.635 202.781V205.161H389.556V202.781C389.556 202.719 389.544 202.658 389.521 202.601C389.497 202.544 389.462 202.491 389.418 202.448C389.374 202.404 389.322 202.369 389.265 202.345C389.208 202.322 389.147 202.309 389.085 202.309H300.369C300.307 202.309 300.245 202.322 300.188 202.345C300.131 202.369 300.079 202.404 300.035 202.448C299.991 202.491 299.956 202.544 299.933 202.601C299.909 202.658 299.897 202.719 299.897 202.781V205.161H292.818V202.781C292.818 202.719 292.806 202.658 292.782 202.601C292.759 202.544 292.724 202.491 292.68 202.448C292.636 202.404 292.584 202.369 292.527 202.345C292.47 202.322 292.408 202.309 292.346 202.309H281.021C280.959 202.309 280.898 202.322 280.84 202.345C280.783 202.369 280.731 202.404 280.687 202.448C280.644 202.491 280.609 202.544 280.585 202.601C280.561 202.658 280.549 202.719 280.549 202.781V205.161H273.471V202.781C273.471 202.719 273.459 202.658 273.435 202.601C273.411 202.544 273.376 202.491 273.333 202.448C273.289 202.404 273.237 202.369 273.179 202.345C273.122 202.322 273.061 202.309 272.999 202.309H261.673C261.611 202.309 261.55 202.322 261.493 202.345C261.436 202.369 261.384 202.404 261.34 202.448C261.296 202.491 261.261 202.544 261.237 202.601C261.214 202.658 261.202 202.719 261.202 202.781V205.161H254.123V202.781C254.123 202.719 254.111 202.658 254.087 202.601C254.064 202.544 254.029 202.491 253.985 202.448C253.941 202.404 253.889 202.369 253.832 202.345C253.775 202.322 253.713 202.309 253.651 202.309H242.326C242.264 202.309 242.202 202.322 242.145 202.345C242.088 202.369 242.036 202.404 241.992 202.448C241.948 202.491 241.914 202.544 241.89 202.601C241.866 202.658 241.854 202.719 241.854 202.781V205.161H234.776V202.781C234.776 202.719 234.763 202.658 234.74 202.601C234.716 202.544 234.681 202.491 234.637 202.448C234.593 202.404 234.541 202.369 234.484 202.345C234.427 202.322 234.366 202.309 234.304 202.309H222.978C222.916 202.309 222.855 202.322 222.798 202.345C222.74 202.369 222.688 202.404 222.645 202.448C222.601 202.491 222.566 202.544 222.542 202.601C222.519 202.658 222.506 202.719 222.506 202.781V205.161H215.428V202.781C215.428 202.719 215.416 202.658 215.392 202.601C215.368 202.544 215.334 202.491 215.29 202.448C215.246 202.404 215.194 202.369 215.137 202.345C215.079 202.322 215.018 202.309 214.956 202.309H203.631C203.505 202.309 203.385 202.359 203.297 202.448C203.208 202.536 203.159 202.656 203.159 202.781V205.161H196.08V202.781C196.08 202.719 196.068 202.658 196.044 202.601C196.021 202.544 195.986 202.491 195.942 202.448C195.898 202.404 195.846 202.369 195.789 202.345C195.732 202.322 195.67 202.309 195.608 202.309H184.283C184.158 202.309 184.038 202.359 183.949 202.448C183.861 202.536 183.811 202.656 183.811 202.781V205.161H162.104C159.1 205.161 156.22 206.355 154.096 208.478C151.972 210.602 150.779 213.483 150.779 216.487V221.608C150.779 224.612 151.972 227.492 154.096 229.616C156.22 231.74 159.1 232.933 162.104 232.933H538.675C541.678 232.933 544.559 231.74 546.683 229.616C548.807 227.492 550 224.612 550 221.608V216.487C550 214.999 549.707 213.527 549.138 212.153C548.569 210.779 547.735 209.53 546.683 208.478C545.631 207.427 544.383 206.593 543.009 206.023C541.635 205.454 540.162 205.161 538.675 205.161Z" fill="#3F3D56"/>
</g>
<defs>
<clipPath id="clip0_54_2163">
<rect width="550" height="235.585" fill="white" transform="translate(0 0.921997)"/>
</clipPath>
</defs>
</svg>
