<svg width="32" height="32" viewBox="0 0 32 32" fill="none" xmlns="http://www.w3.org/2000/svg">
<path d="M16 0.320801C7.16 0.320801 0 7.4848 0 16.3208C0 23.3915 4.584 29.3875 10.94 31.5008C11.74 31.6515 12.0333 31.1568 12.0333 30.7315C12.0333 30.3515 12.02 29.3448 12.0133 28.0115C7.56267 28.9768 6.624 25.8648 6.624 25.8648C5.896 24.0181 4.844 23.5248 4.844 23.5248C3.39467 22.5328 4.956 22.5528 4.956 22.5528C6.56267 22.6648 7.40667 24.2008 7.40667 24.2008C8.83333 26.6475 11.152 25.9408 12.0667 25.5315C12.2107 24.4968 12.6227 23.7915 13.08 23.3915C9.52667 22.9915 5.792 21.6155 5.792 15.4848C5.792 13.7381 6.412 12.3115 7.43867 11.1915C7.25867 10.7875 6.71867 9.1608 7.57867 6.9568C7.57867 6.9568 8.91867 6.52747 11.9787 8.5968C13.2587 8.2408 14.6187 8.0648 15.9787 8.0568C17.3387 8.0648 18.6987 8.2408 19.9787 8.5968C23.0187 6.52747 24.3587 6.9568 24.3587 6.9568C25.2187 9.1608 24.6787 10.7875 24.5187 11.1915C25.5387 12.3115 26.1587 13.7381 26.1587 15.4848C26.1587 21.6315 22.4187 22.9848 18.8587 23.3781C19.4187 23.8581 19.9387 24.8395 19.9387 26.3381C19.9387 28.4795 19.9187 30.1995 19.9187 30.7195C19.9187 31.1395 20.1987 31.6395 21.0187 31.4795C27.42 29.3808 32 23.3808 32 16.3208C32 7.4848 24.836 0.320801 16 0.320801Z" fill="#EDDEFF"/>
</svg>
