<svg width="32" height="33" viewBox="0 0 32 33" fill="none" xmlns="http://www.w3.org/2000/svg">
<path d="M27.2627 28.1941H22.524V20.7688C22.524 18.9981 22.488 16.7195 20.0547 16.7195C17.584 16.7195 17.2067 18.6461 17.2067 20.6381V28.1941H12.468V12.9248H17.02V15.0061H17.0813C17.7173 13.8061 19.264 12.5395 21.5747 12.5395C26.376 12.5395 27.264 15.6995 27.264 19.8128V28.1941H27.2627ZM7.116 10.8355C5.59067 10.8355 4.36533 9.60081 4.36533 8.08214C4.36533 6.56481 5.592 5.33147 7.116 5.33147C8.636 5.33147 9.868 6.56481 9.868 8.08214C9.868 9.60081 8.63467 10.8355 7.116 10.8355ZM9.492 28.1941H4.74V12.9248H9.492V28.1941ZM29.6333 0.924805H2.36133C1.056 0.924805 0 1.9568 0 3.23014V30.6195C0 31.8941 1.056 32.9248 2.36133 32.9248H29.6293C30.9333 32.9248 32 31.8941 32 30.6195V3.23014C32 1.9568 30.9333 0.924805 29.6293 0.924805H29.6333Z" fill="#EDDEFF"/>
</svg>
