<svg width="34" height="34" viewBox="0 0 34 34" fill="none" xmlns="http://www.w3.org/2000/svg">
<path d="M24.9377 20.2002C24.5293 19.9953 22.5203 19.008 22.1462 18.8704C21.7708 18.7343 21.4986 18.6669 21.2249 19.0767C20.954 19.4851 20.1702 20.4051 19.9323 20.6773C19.6944 20.951 19.4552 20.984 19.0468 20.7805C18.6383 20.5742 17.321 20.1438 15.7602 18.7522C14.546 17.6686 13.7251 16.3306 13.4872 15.9208C13.2493 15.5124 13.4624 15.291 13.666 15.0875C13.8502 14.9046 14.0757 14.6104 14.2793 14.3725C14.4841 14.1332 14.5515 13.9627 14.689 13.689C14.8252 13.4168 14.7578 13.1789 14.6547 12.974C14.5515 12.7691 13.7347 10.7573 13.3951 9.93913C13.0623 9.14294 12.7254 9.25158 12.4751 9.23783C12.2372 9.22683 11.965 9.22408 11.6913 9.22408C11.419 9.22408 10.9763 9.32583 10.6022 9.73561C10.2282 10.144 9.17212 11.1327 9.17212 13.1445C9.17212 15.1549 10.6366 17.0979 10.8401 17.3716C11.045 17.6439 13.7223 21.7719 17.8215 23.5417C18.7965 23.9625 19.5569 24.2141 20.151 24.4011C21.13 24.7133 22.0211 24.6693 22.7238 24.5634C23.509 24.4465 25.1412 23.5747 25.4823 22.6204C25.8233 21.666 25.8233 20.8478 25.7201 20.6773C25.6184 20.5068 25.3461 20.4051 24.9363 20.2002M17.4819 30.3801H17.4764C15.0421 30.3803 12.6526 29.7258 10.5582 28.4852L10.0618 28.1909L4.91754 29.5413L6.28989 24.5249L5.96674 24.0106C4.60599 21.8438 3.88613 19.3362 3.89033 16.7775C3.89171 9.28321 9.9903 3.18598 17.4874 3.18598C21.1177 3.18598 24.5307 4.60234 27.0966 7.17104C28.3627 8.43149 29.3661 9.9305 30.049 11.5813C30.7318 13.2322 31.0805 15.0021 31.0748 16.7885C31.0707 24.2829 24.9735 30.3801 17.4819 30.3801ZM29.0506 5.21977C27.5355 3.69467 25.7328 2.48542 23.747 1.66209C21.7611 0.838766 19.6316 0.417735 17.4819 0.423396C8.46806 0.423396 1.13187 7.75959 1.12775 16.7762C1.12775 19.6584 1.87993 22.4718 3.31141 24.9512L0.990234 33.4259L9.66028 31.1515C12.0579 32.4578 14.7446 33.1423 17.475 33.1427H17.4819C26.4943 33.1427 33.8319 25.8065 33.836 16.7885C33.8427 14.6396 33.4232 12.5107 32.6018 10.525C31.7804 8.53923 30.5734 6.73605 29.0506 5.21977Z" fill="#EDDEFF"/>
</svg>
