<svg width="32" height="25" viewBox="0 0 32 25" fill="none" xmlns="http://www.w3.org/2000/svg">
<path d="M31.9902 4.20317V22.7428C31.9902 23.9478 31.0145 24.9235 29.8095 24.9235H24.7191V12.5646L15.9951 19.1093L7.2711 12.5646V24.9248H2.18066C1.89418 24.9248 1.61051 24.8684 1.34585 24.7587C1.08119 24.649 0.840741 24.4883 0.63823 24.2856C0.43572 24.083 0.275121 23.8424 0.165611 23.5777C0.0561006 23.313 -0.000174703 23.0293 4.0741e-07 22.7428V4.20317C4.0741e-07 1.50667 3.07772 -0.0328597 5.23439 1.58531L7.2711 3.11417L15.9951 9.65616L24.7191 3.11151L26.7558 1.58531C28.9111 -0.0315269 31.9902 1.50667 31.9902 4.20317Z" fill="#6b7280"/>
</svg>
